<svg id="Layer_1" enable-background="new 0 0 512 512" height="512" viewBox="0 0 512 512" width="512" xmlns="http://www.w3.org/2000/svg"><g><g><path d="m436 512h-360c-8.284 0-15-6.716-15-15v-482c0-8.284 6.716-15 15-15h270l105 105v392c0 8.284-6.716 15-15 15z" fill="#fff4f4"/></g><path d="m346 0h-90v512h180c8.284 0 15-6.716 15-15v-392z" fill="#f6efea"/><path clip-rule="evenodd" d="m346 0v90c0 8.284 6.716 15 15 15h90z" fill="#eee1dc" fill-rule="evenodd"/><path clip-rule="evenodd" d="m451 105-105-105h90c8.284 0 15 6.716 15 15z" fill="#bebcdd" fill-rule="evenodd"/><g><path d="m255.643 451.969c-57.828 0-104.875-47.047-104.875-104.875s47.047-104.875 104.875-104.875 104.875 47.047 104.875 104.875-47.046 104.875-104.875 104.875z" fill="#00ddc0"/></g><g><path d="m255.995 378.022c-4.285 0-8.365-1.833-11.212-5.035l-27.3-30.717c-5.503-6.192-4.944-15.673 1.247-21.177 6.193-5.504 15.674-4.944 21.177 1.248l16.082 18.095 84.562-95.241c5.501-6.194 14.981-6.759 21.176-1.258 6.195 5.5 6.758 14.981 1.258 21.176l-95.773 107.868c-2.846 3.205-6.927 5.04-11.213 5.041-.002 0-.003 0-.004 0z" fill="#00607f"/></g><g><path d="m266.959 89.97h-130.959c-8.284 0-15-6.716-15-15s6.716-15 15-15h130.959c8.284 0 15 6.716 15 15s-6.716 15-15 15z" fill="#4793ff"/></g><g><path d="m266.959 149.971h-130.959c-8.284 0-15-6.716-15-15s6.716-15 15-15h130.959c8.284 0 15 6.716 15 15s-6.716 15-15 15z" fill="#4793ff"/></g><path d="m256 242.224v209.741c57.665-.193 104.519-47.161 104.519-104.87s-46.855-104.678-104.519-104.871z" fill="#00c6ce"/><g><path d="m375.998 209.97h-239.998c-8.284 0-15-6.716-15-15s6.716-15 15-15h239.998c8.284 0 15 6.716 15 15s-6.716 15-15 15z" fill="#4793ff"/></g><path d="m361.727 243.938c-6.194-5.501-15.675-4.937-21.176 1.258l-84.551 95.228v37.598c4.286-.001 8.366-1.836 11.212-5.041l95.773-107.868c5.5-6.195 4.937-15.675-1.258-21.175z" fill="#002c3c"/><g fill="#525cdd"><path d="m375.998 179.97h-119.998v30h119.998c8.284 0 15-6.716 15-15s-6.716-15-15-15z"/><path d="m266.959 119.971h-10.959v30h10.959c8.284 0 15-6.716 15-15s-6.716-15-15-15z"/><path d="m266.959 59.97h-10.959v30h10.959c8.284 0 15-6.716 15-15s-6.716-15-15-15z"/></g></g></svg>