<svg height="512pt" viewBox="0 -1 512 512" width="512pt" xmlns="http://www.w3.org/2000/svg"><path d="m179.867188 75.148438c-5.074219 0-10.027344-2.570313-12.855469-7.222657-4.316407-7.089843-2.0625-16.335937 5.03125-20.648437l74.144531-45.089844c4.867188-2.960938 10.992188-2.914062 15.816406.125l71.601563 45.085938c7.023437 4.425781 9.132812 13.703124 4.710937 20.726562-4.425781 7.023438-13.703125 9.132812-20.730468 4.710938l-63.726563-40.132813-66.199219 40.253906c-2.4375 1.484375-5.132812 2.191407-7.792968 2.191407zm0 0" fill="#f9f1cf"/><path d="m333.605469 47.398438-71.601563-45.089844c-2.820312-1.773438-6.082031-2.519532-9.28125-2.2500002v33.3320312l1.136719-.6875 63.726563 40.132813c7.027343 4.421874 16.304687 2.3125 20.730468-4.710938 4.421875-7.023438 2.3125-16.304688-4.710937-20.726562zm0 0" fill="#f7e8ad"/><path d="m496.96875 45.085938h-481.9375c-8.300781 0-15.03125 6.730468-15.03125 15.03125v434.652343c0 8.300781 6.730469 15.027344 15.03125 15.027344h481.9375c8.300781 0 15.03125-6.726563 15.03125-15.027344v-434.652343c0-8.300782-6.730469-15.03125-15.03125-15.03125zm0 0" fill="#b46e5a"/><path d="m496.96875 45.085938h-244.246094v464.710937h244.246094c8.300781 0 15.03125-6.726563 15.03125-15.027344v-434.652343c0-8.300782-6.730469-15.03125-15.03125-15.03125zm0 0" fill="#915041"/><path d="m448.308594 88.976562h-384.617188c-8.300781 0-15.027344 6.726563-15.027344 15.027344v346.875c0 8.300782 6.726563 15.03125 15.027344 15.03125h384.613282c8.300781 0 15.03125-6.730468 15.03125-15.03125v-346.875c0-8.300781-6.726563-15.027344-15.027344-15.027344zm0 0" fill="#ffda45"/><path d="m448.308594 88.976562h-195.585938v376.933594h195.582032c8.300781 0 15.03125-6.730468 15.03125-15.03125v-346.875c0-8.300781-6.726563-15.027344-15.027344-15.027344zm0 0" fill="#ffbc36"/><path d="m289.710938 216.179688-34.605469-91.785157c-1.402344-3.730469-4.234375-6.746093-7.867188-8.390625-3.632812-1.640625-7.765625-1.773437-11.496093-.367187l-94.863282 35.765625c-3.730468 1.40625-6.746094 4.234375-8.390625 7.867187-1.644531 3.632813-1.777343 7.769531-.371093 11.5l34.609374 91.78125c2.269532 6.019531 7.988282 9.730469 14.0625 9.730469 1.761719 0 3.554688-.3125 5.300782-.96875l94.863281-35.765625c3.730469-1.40625 6.746094-4.238281 8.390625-7.867187 1.644531-3.632813 1.777344-7.769532.367188-11.5zm0 0" fill="#f9f5e5"/><path d="m289.710938 216.179688-34.605469-91.785157c-1.402344-3.730469-4.234375-6.746093-7.867188-8.390625-3.632812-1.640625-7.765625-1.773437-11.496093-.367187l-47.027344 17.730469 44.328125 120.242187 47.90625-18.0625c3.730469-1.40625 6.75-4.238281 8.390625-7.867187 1.648437-3.632813 1.78125-7.769532.371094-11.5zm0 0" fill="#f9f1cf"/><path d="m432.75 258.136719c-1.789062-3.5625-4.917969-6.265625-8.703125-7.519531l-96.234375-31.894532c-7.878906-2.613281-16.382812 1.65625-18.992188 9.539063l-30.863281 93.109375c-2.609375 7.878906 1.660157 16.382812 9.539063 18.992187l96.234375 31.894531c1.539062.511719 3.136719.765626 4.726562.765626 2.320313 0 4.632813-.539063 6.746094-1.597657 3.5625-1.789062 6.265625-4.921875 7.519531-8.703125l30.863282-93.113281c1.253906-3.78125.953124-7.910156-.835938-11.472656zm0 0" fill="#f9f1cf"/><path d="m376.6875 234.921875-48.875-16.199219c-7.878906-2.613281-16.382812 1.65625-18.992188 9.539063l-30.859374 93.109375c-2.613282 7.878906 1.65625 16.382812 9.539062 18.992187l46.933594 15.558594zm0 0" fill="#f9f5e5"/><path d="m368.429688 274.875c-1.582032 0-3.1875-.25-4.769532-.777344-7.871094-2.632812-12.121094-11.148437-9.488281-19.019531l9.554687-28.578125c2.636719-7.871094 11.152344-12.121094 19.019532-9.488281 7.871094 2.632812 12.121094 11.148437 9.488281 19.019531l-9.554687 28.578125c-2.101563 6.292969-7.964844 10.265625-14.25 10.265625zm0 0" fill="#2e92e5"/><path d="m363.085938 273.871094 19.832031-56.789063c-.058594-.023437-.109375-.046875-.167969-.070312-7.871094-2.632813-16.386719 1.617187-19.019531 9.488281l-9.558594 28.578125c-2.566406 7.671875 1.417969 15.945313 8.914063 18.792969zm0 0" fill="#65b1fc"/><path d="m207.519531 197.363281c-3.847656 0-7.691406-1.464843-10.628906-4.402343l-.621094-.621094c-5.871093-5.871094-5.871093-15.386719 0-21.253906 5.867188-5.871094 15.386719-5.871094 21.253907 0l.625.621093c5.867187 5.867188 5.867187 15.386719 0 21.253907-2.9375 2.9375-6.78125 4.402343-10.628907 4.402343zm0 0" fill="#ff6c52"/><path d="m212.050781 196.660156c2.226563-.707031 4.328125-1.929687 6.097657-3.695312 5.867187-5.871094 5.867187-15.386719 0-21.257813l-.625-.621093c-4.363282-4.363282-10.738282-5.476563-16.136719-3.351563zm0 0" fill="#fc3c32"/><path d="m201.851562 433.585938 40.433594-89.371094c1.640625-3.632813 1.777344-7.765625.367188-11.5-1.40625-3.726563-4.234375-6.746094-7.867188-8.390625l-92.367187-41.785157c-3.632813-1.644531-7.765625-1.777343-11.5-.371093-3.726563 1.40625-6.746094 4.238281-8.386719 7.867187l-40.433594 89.371094c-2.652344 5.863281-1.230468 12.53125 3.066406 16.828125 1.246094 1.246094 2.734376 2.292969 4.433594 3.0625l92.367188 41.785156c3.632812 1.644531 7.765625 1.777344 11.496094.371094 3.730468-1.40625 6.75-4.234375 8.390624-7.867187zm0 0" fill="#f9f5e5"/><path d="m201.851562 433.585938 40.433594-89.371094c1.640625-3.632813 1.777344-7.765625.367188-11.5-1.40625-3.726563-4.234375-6.746094-7.867188-8.390625l-45.789062-20.714844-53.683594 116.371094 46.652344 21.101562c3.632812 1.644531 7.765625 1.777344 11.496094.371094 3.730468-1.40625 6.75-4.234375 8.390624-7.867187zm0 0" fill="#f9f1cf"/><path d="m157.035156 362.160156c-2.71875-2.722656-4.398437-6.476562-4.398437-10.628906v-.882812c-.003907-8.296876 6.726562-15.027344 15.027343-15.027344 8.300782 0 15.03125 6.730468 15.03125 15.027344v.882812c0 8.300781-6.730468 15.03125-15.03125 15.03125-4.148437 0-7.90625-1.683594-10.628906-4.402344zm0 0" fill="#ff6c52"/><path d="m160.738281 364.863281c2.074219 1.078125 4.425781 1.699219 6.925781 1.699219 8.300782 0 15.03125-6.730469 15.03125-15.03125v-.882812c0-6.167969-3.722656-11.464844-9.042968-13.777344zm0 0" fill="#fc3c32"/></svg>