<?xml version="1.0" encoding="UTF-8" standalone="no"?>
<svg
   xmlns:dc="http://purl.org/dc/elements/1.1/"
   xmlns:cc="http://creativecommons.org/ns#"
   xmlns:rdf="http://www.w3.org/1999/02/22-rdf-syntax-ns#"
   xmlns:svg="http://www.w3.org/2000/svg"
   xmlns="http://www.w3.org/2000/svg"
   xmlns:sodipodi="http://sodipodi.sourceforge.net/DTD/sodipodi-0.dtd"
   xmlns:inkscape="http://www.inkscape.org/namespaces/inkscape"
   id="Layer_1"
   enable-background="new 0 0 512 512"
   height="512"
   viewBox="0 0 512 512"
   width="512"
   version="1.1"
   sodipodi:docname="code.svg"
   inkscape:version="1.0.2-2 (e86c870879, 2021-01-15)">
  <metadata
     id="metadata37">
    <rdf:RDF>
      <cc:Work
         rdf:about="">
        <dc:format>image/svg+xml</dc:format>
        <dc:type
           rdf:resource="http://purl.org/dc/dcmitype/StillImage" />
      </cc:Work>
    </rdf:RDF>
  </metadata>
  <defs
     id="defs35" />
  <sodipodi:namedview
     pagecolor="#ffffff"
     bordercolor="#666666"
     borderopacity="1"
     objecttolerance="10"
     gridtolerance="10"
     guidetolerance="10"
     inkscape:pageopacity="0"
     inkscape:pageshadow="2"
     inkscape:window-width="1920"
     inkscape:window-height="1017"
     id="namedview33"
     showgrid="false"
     showguides="true"
     inkscape:guide-bbox="true"
     inkscape:zoom="1.6601562"
     inkscape:cx="240.67132"
     inkscape:cy="270.86689"
     inkscape:window-x="-8"
     inkscape:window-y="-8"
     inkscape:window-maximized="1"
     inkscape:current-layer="g1038">
    <sodipodi:guide
       position="-294.74207,398.70319"
       orientation="0,-1"
       id="guide1019" />
    <sodipodi:guide
       position="320.93663,262.61924"
       orientation="1,0"
       id="guide1060" />
  </sodipodi:namedview>
  <g
     inkscape:groupmode="layer"
     id="layer1"
     inkscape:label="Layer 1"
     style="display:none;opacity:0.390323">
    <g
       id="g30"
       transform="translate(-0.44328724,14.890107)">
      <path
         d="M 481.081,438.5 H 30.919 C 13.843,438.5 0,424.657 0,407.581 V 137.102 h 512 v 270.479 c 0,17.076 -13.843,30.919 -30.919,30.919 z"
         fill="#a9dbf5"
         id="path2" />
      <path
         d="M 481.095,137.102 V 438.5 C 498.164,438.5 512,424.651 512,407.568 V 137.102 Z"
         fill="#88c3e0"
         id="path4" />
      <g
         fill="#43809f"
         id="g12">
        <path
           d="m 103.87,233.967 c -2.929,-2.928 -7.678,-2.928 -10.606,0 l -46.431,46.431 c -2.929,2.93 -2.929,7.678 0,10.607 l 45.816,45.816 c 1.464,1.464 3.384,2.196 5.303,2.196 1.919,0 3.839,-0.732 5.303,-2.196 2.929,-2.93 2.929,-7.678 0,-10.607 l -40.513,-40.513 41.127,-41.127 c 2.93,-2.929 2.93,-7.678 0.001,-10.607 z"
           id="path6" />
        <path
           d="m 264.52,280.397 -46.431,-46.431 c -2.929,-2.928 -7.678,-2.928 -10.606,0 -2.929,2.93 -2.929,7.678 0,10.607 l 41.127,41.127 -40.513,40.513 c -2.929,2.93 -2.929,7.678 0,10.607 1.464,1.464 3.384,2.196 5.303,2.196 1.919,0 3.839,-0.732 5.303,-2.196 l 45.817,-45.816 c 2.928,-2.929 2.928,-7.677 0,-10.607 z"
           id="path8" />
        <path
           d="m 185.813,206.063 c -3.874,-1.471 -8.203,0.477 -9.673,4.351 l -54.902,144.638 c -1.47,3.872 0.478,8.203 4.35,9.673 0.876,0.333 1.775,0.49 2.66,0.49 3.025,0 5.876,-1.844 7.013,-4.841 l 54.902,-144.638 c 1.47,-3.872 -0.477,-8.203 -4.35,-9.673 z"
           id="path10" />
      </g>
      <path
         d="m 386.318,234.23 h -48.419 c -8.534,0 -15.453,-6.918 -15.453,-15.453 0,-8.534 6.918,-15.453 15.453,-15.453 h 48.419 c 8.534,0 15.453,6.918 15.453,15.453 0,8.534 -6.919,15.453 -15.453,15.453 z"
         fill="#29cef6"
         id="path14" />
      <path
         d="M 465.642,296.041 H 337.899 c -8.534,0 -15.453,-6.918 -15.453,-15.453 0,-8.534 6.918,-15.453 15.453,-15.453 h 127.742 c 8.534,0 15.453,6.918 15.453,15.453 0.001,8.534 -6.918,15.453 -15.452,15.453 z"
         fill="#ffc328"
         id="path16" />
      <path
         d="m 427.695,357.852 h -89.796 c -8.534,0 -15.453,-6.918 -15.453,-15.453 0,-8.534 6.918,-15.453 15.453,-15.453 h 89.796 c 8.534,0 15.453,6.918 15.453,15.453 0,8.534 -6.919,15.453 -15.453,15.453 z"
         fill="#f78e36"
         id="path18" />
      <path
         d="M 512,147.737 H 0 V 104.419 C 0,87.343 13.843,73.5 30.919,73.5 H 481.081 C 498.157,73.5 512,87.343 512,104.419 Z"
         fill="#43809f"
         id="path20" />
      <path
         d="m 481.095,73.5 v 74.237 H 512 V 104.432 C 512,87.349 498.163,73.5 481.095,73.5 Z"
         fill="#3a7190"
         id="path22" />
      <circle
         cx="49.455002"
         cy="111.126"
         fill="#29cef6"
         r="15.453"
         id="circle24" />
      <circle
         cx="109.37"
         cy="111.126"
         fill="#f3f3f3"
         r="15.453"
         id="circle26" />
      <circle
         cx="169.285"
         cy="111.126"
         fill="#f78e36"
         r="15.453"
         id="circle28" />
    </g>
  </g>
  <g
     inkscape:groupmode="layer"
     id="layer2"
     inkscape:label="Layer 2"
     style="display:inline;opacity:1">
    <rect
       style="opacity:0.996;fill:#fff6d5;fill-opacity:1;stroke-width:4.95387"
       id="rect940"
       width="501.7261"
       height="362.03867"
       x="5.1280661"
       y="90.296707" />
  </g>
  <g
     inkscape:groupmode="layer"
     id="layer3"
     inkscape:label="Layer 3"
     style="display:inline">
    <rect
       style="opacity:0.996;fill:#ffcc00;fill-opacity:1;stroke-width:4.9435"
       id="rect943"
       width="501.7261"
       height="72.330399"
       x="5.1280661"
       y="90.296707" />
  </g>
  <g
     inkscape:groupmode="layer"
     id="layer4"
     inkscape:label="Layer 4"
     style="display:inline">
    <circle
       style="display:inline;opacity:0.996;fill:#ff2a2a;fill-opacity:1;stroke-width:5"
       id="path947"
       cx="41.558228"
       cy="126.72424"
       r="13.629691" />
    <circle
       style="display:inline;opacity:0.996;fill:#71c837;fill-opacity:1;stroke-width:5"
       id="path947-2"
       cx="85.704124"
       cy="126.77592"
       r="13.629691" />
    <circle
       style="display:inline;opacity:0.996;fill:#5599ff;fill-opacity:1;stroke-width:5"
       id="path947-27"
       cx="128.29692"
       cy="126.72424"
       r="13.629691" />
  </g>
  <g
     inkscape:groupmode="layer"
     id="layer5"
     inkscape:label="Layer 5"
     style="display:inline">
    <path
       style="fill:#ffdd55;stroke:none;stroke-width:1px;stroke-linecap:butt;stroke-linejoin:miter;stroke-opacity:1"
       d="m 62.298713,300.59111 46.738817,-45.0344 -14.481547,-10.22227 -51.111342,52.81505 -1.703712,4.25928 56.222476,53.66691 9.370415,-12.77783 z"
       id="path1024" />
  </g>
  <g
     inkscape:groupmode="layer"
     id="g1028"
     inkscape:label="Layer 5 copy"
     style="display:inline">
    <path
       style="fill:#ffdd55;stroke:none;stroke-width:1px;stroke-linecap:butt;stroke-linejoin:miter;stroke-opacity:1"
       d="m 248.16671,300.59011 -46.73881,45.0344 14.48154,10.22227 51.11134,-52.81505 1.70372,-4.25928 -56.22248,-53.66691 -9.37041,12.77783 z"
       id="path1026" />
  </g>
  <g
     inkscape:groupmode="layer"
     id="layer6"
     inkscape:label="Layer 5 copy 1"
     style="display:inline">
    <path
       style="fill:#ffdd55;stroke:none;stroke-width:1px;stroke-linecap:butt;stroke-linejoin:miter;stroke-opacity:1"
       d="m 175.48227,223.18619 -54.51876,149.92661 13.62969,5.96299 55.37062,-149.07475 z"
       id="path1031" />
  </g>
  <g
     inkscape:groupmode="layer"
     id="layer7"
     inkscape:label="Layer 5 copy 2"
     style="display:inline">
    <rect
       style="opacity:0.996;fill:#ff5555;fill-opacity:1;stroke:none;stroke-width:5.00516"
       id="rect1034"
       width="103.28751"
       height="21.296392"
       x="320.93661"
       y="222.33435" />
  </g>
  <g
     inkscape:groupmode="layer"
     id="g1038"
     inkscape:label="Layer 5 copy 2 copy"
     style="display:inline">
    <rect
       style="opacity:0.996;fill:#ffcc00;fill-opacity:1;stroke:none;stroke-width:6.11951"
       id="rect1036"
       width="154.39885"
       height="21.296392"
       x="320.93661"
       y="283.66797" />
    <rect
       style="display:inline;opacity:0.996;fill:#ff6600;fill-opacity:1;stroke:none;stroke-width:5.32517"
       id="rect1036-7"
       width="116.91719"
       height="21.296392"
       x="320.93661"
       y="346.27936" />
  </g>
</svg>
