<svg height="512" viewBox="0 0 64 64" width="512" xmlns="http://www.w3.org/2000/svg"><g id="connection-social-distance-realtion-network"><path d="m61 53v8h-18v-8a4 4 0 0 1 4-4l2 6h6l2-6a4 4 0 0 1 4 4z" fill="#ff7956"/><path d="m59 15a2.006 2.006 0 0 1 2 2 2.015 2.015 0 0 1 -2 2h-20a2.006 2.006 0 0 1 -2-2 2.015 2.015 0 0 1 2-2h8v1h4v-1z" fill="#c6c5ca"/><path d="m59 5v10h-8v1h-4v-1h-8v-10a2.006 2.006 0 0 1 2-2h16a2.006 2.006 0 0 1 2 2z" fill="#00d7df"/><path d="m57 38v3a4 4 0 0 1 -3.03 3.88 3.906 3.906 0 0 1 -.97.12h-2a3.906 3.906 0 0 1 -.97-.12 4 4 0 0 1 -3.03-3.88v-3h3l3-1 1 1z" fill="#ffdaaa"/><path d="m57 37v1h-3l-1-1-3 1h-3v-1a4 4 0 0 1 4-4h2a4 4 0 0 1 4 4z" fill="#ffeb99"/><path d="m57 49-2 6h-6l-2-6h3 4z" fill="#c0ab91"/><path d="m25 57a2.006 2.006 0 0 1 2 2 2.015 2.015 0 0 1 -2 2h-20a2.006 2.006 0 0 1 -2-2 2.015 2.015 0 0 1 2-2h8v1h4v-1z" fill="#c6c5ca"/><path d="m25 47v10h-8v1h-4v-1h-8v-10a2.006 2.006 0 0 1 2-2h16a2.006 2.006 0 0 1 2 2z" fill="#00d7df"/><path d="m27 59a2.015 2.015 0 0 1 -2 2h-4a2.015 2.015 0 0 0 2-2 2.006 2.006 0 0 0 -2-2h4a2.006 2.006 0 0 1 2 2z" fill="#898890"/><path d="m25 47v10h-4v-10a2.006 2.006 0 0 0 -2-2h4a2.006 2.006 0 0 1 2 2z" fill="#009698"/><path d="m21 23v8h-18v-8a4 4 0 0 1 4-4l2 6h6l2-6a4 4 0 0 1 4 4z" fill="#57a4ff"/><path d="m17 8v3a4 4 0 0 1 -3.03 3.88 3.906 3.906 0 0 1 -.97.12h-2a3.906 3.906 0 0 1 -.97-.12 4 4 0 0 1 -3.03-3.88v-3h3l3-1 1 1z" fill="#ffdaaa"/><path d="m17 7v1h-3l-1-1-3 1h-3v-1a4 4 0 0 1 4-4h2a4 4 0 0 1 4 4z" fill="#ffeb99"/><path d="m17 19-2 6h-6l-2-6h3 4z" fill="#c0ab91"/><path d="m61 53v8h-4v-8a4 4 0 0 0 -4-4h4a4 4 0 0 1 4 4z" fill="#ff5023"/><path d="m57 49-2 6h-2l2-6z" fill="#a78966"/><path d="m57 39v2a4 4 0 0 1 -3.03 3.88 3.906 3.906 0 0 1 -.97.12h-2a3.906 3.906 0 0 0 .97-.12 4 4 0 0 0 3.03-3.88v-2z" fill="#ffc477"/><path d="m57 37v2h-2v-2a4 4 0 0 0 -4-4h2a4 4 0 0 1 4 4z" fill="#ffcd00"/><path d="m54 45v4h-4v-4l.03-.12a3.906 3.906 0 0 0 .97.12h2a3.906 3.906 0 0 0 .97-.12z" fill="#ffc477"/><path d="m21 23v8h-4v-8a4 4 0 0 0 -4-4h4a4 4 0 0 1 4 4z" fill="#006df0"/><path d="m17 9v2a4 4 0 0 1 -3.03 3.88 3.906 3.906 0 0 1 -.97.12h-2a3.906 3.906 0 0 0 .97-.12 4 4 0 0 0 3.03-3.88v-2z" fill="#ffc477"/><path d="m17 7v2h-2v-2a4 4 0 0 0 -4-4h2a4 4 0 0 1 4 4z" fill="#ffcd00"/><path d="m17 19-2 6h-2l2-6z" fill="#a78966"/><path d="m14 15v4h-4v-4l.03-.12a3.906 3.906 0 0 0 .97.12h2a3.906 3.906 0 0 0 .97-.12z" fill="#ffc477"/><path d="m61 17a2.015 2.015 0 0 1 -2 2h-4a2.015 2.015 0 0 0 2-2 2.006 2.006 0 0 0 -2-2h4a2.006 2.006 0 0 1 2 2z" fill="#898890"/><path d="m59 5v10h-4v-10a2.006 2.006 0 0 0 -2-2h4a2.006 2.006 0 0 1 2 2z" fill="#009698"/><path d="m57 48h-2v-2.42a5.014 5.014 0 0 0 3-4.58v-4a5 5 0 0 0 -5-5h-2a5 5 0 0 0 -5 5v4a5.014 5.014 0 0 0 3 4.58v2.42h-2a5 5 0 0 0 -5 5v8a1 1 0 0 0 1 1h18a1 1 0 0 0 1-1v-8a5 5 0 0 0 -5-5zm-6-14h2a3.009 3.009 0 0 1 3 3h-1.59l-.7-.71a1.007 1.007 0 0 0 -1.03-.24l-2.84.95h-1.84a3.009 3.009 0 0 1 3-3zm-3 7v-2h2a1.185 1.185 0 0 0 .32-.05l2.41-.81.56.57a1.033 1.033 0 0 0 .71.29h2v2a3.009 3.009 0 0 1 -3 3h-2a3.009 3.009 0 0 1 -3-3zm5 5v2h-2v-2zm2.61 4-1.33 4h-4.56l-1.33-4zm4.39 10h-16v-7a2.992 2.992 0 0 1 2.31-2.91l1.74 5.23a1.014 1.014 0 0 0 .95.68h6a1.014 1.014 0 0 0 .95-.68l1.74-5.23a2.992 2.992 0 0 1 2.31 2.91z"/><path d="m17 18h-2v-2.42a5.014 5.014 0 0 0 3-4.58v-4a5 5 0 0 0 -5-5h-2a5 5 0 0 0 -5 5v4a5.014 5.014 0 0 0 3 4.58v2.42h-2a5 5 0 0 0 -5 5v8a1 1 0 0 0 1 1h18a1 1 0 0 0 1-1v-8a5 5 0 0 0 -5-5zm-6-14h2a3.009 3.009 0 0 1 3 3h-1.59l-.7-.71a1.007 1.007 0 0 0 -1.03-.24l-2.84.95h-1.84a3.009 3.009 0 0 1 3-3zm-3 7v-2h2a1.185 1.185 0 0 0 .32-.05l2.41-.81.56.57a1.033 1.033 0 0 0 .71.29h2v2a3.009 3.009 0 0 1 -3 3h-2a3.009 3.009 0 0 1 -3-3zm5 5v2h-2v-2zm2.61 4-1.33 4h-4.56l-1.33-4zm4.39 10h-16v-7a2.992 2.992 0 0 1 2.31-2.91l1.74 5.23a1.014 1.014 0 0 0 .95.68h6a1.014 1.014 0 0 0 .95-.68l1.74-5.23a2.992 2.992 0 0 1 2.31 2.91z"/><path d="m26 56.18v-9.18a3.009 3.009 0 0 0 -3-3h-16a3.009 3.009 0 0 0 -3 3v9.18a3 3 0 0 0 1 5.82h20a3 3 0 0 0 1-5.82zm-20-9.18a1 1 0 0 1 1-1h16a1 1 0 0 1 1 1v9h-7a1 1 0 0 0 -1 1h-2a1 1 0 0 0 -1-1h-7zm19 13h-20a1 1 0 0 1 0-2h7a1 1 0 0 0 1 1h4a1 1 0 0 0 1-1h7a1 1 0 0 1 0 2z"/><path d="m14 50h2v2h-2z"/><path d="m18 50h2v2h-2z"/><path d="m10 50h2v2h-2z"/><path d="m60 14.18v-9.18a3.009 3.009 0 0 0 -3-3h-16a3.009 3.009 0 0 0 -3 3v9.18a3 3 0 0 0 1 5.82h20a3 3 0 0 0 1-5.82zm-20-9.18a1 1 0 0 1 1-1h16a1 1 0 0 1 1 1v9h-7a1 1 0 0 0 -1 1h-2a1 1 0 0 0 -1-1h-7zm19 13h-20a1 1 0 0 1 0-2h7a1 1 0 0 0 1 1h4a1 1 0 0 0 1-1h7a1 1 0 0 1 0 2z"/><path d="m48 8h2v2h-2z"/><path d="m52 8h2v2h-2z"/><path d="m44 8h2v2h-2z"/><path d="m11.508 42.455 1.781-.91a20.788 20.788 0 0 1 -2.2-7.635l-1.992.18a22.8 22.8 0 0 0 2.411 8.365z"/><path d="m28.181 52.654-.362 1.967a23.165 23.165 0 0 0 4.181.379 22.9 22.9 0 0 0 8.364-1.568l-.728-1.864a21.186 21.186 0 0 1 -11.455 1.086z"/><path d="m52.914 30.09 1.992-.18a22.77 22.77 0 0 0 -2.415-8.365l-1.781.91a20.764 20.764 0 0 1 2.204 7.635z"/><path d="m32 11a21.266 21.266 0 0 1 3.819.346l.362-1.967a23.165 23.165 0 0 0 -4.181-.379 22.908 22.908 0 0 0 -12.546 3.721l1.092 1.679a20.913 20.913 0 0 1 11.454-3.4z"/></g></svg>