<?xml version="1.0" encoding="UTF-8" standalone="no"?>
<svg
   xmlns:dc="http://purl.org/dc/elements/1.1/"
   xmlns:cc="http://creativecommons.org/ns#"
   xmlns:rdf="http://www.w3.org/1999/02/22-rdf-syntax-ns#"
   xmlns:svg="http://www.w3.org/2000/svg"
   xmlns="http://www.w3.org/2000/svg"
   xmlns:sodipodi="http://sodipodi.sourceforge.net/DTD/sodipodi-0.dtd"
   xmlns:inkscape="http://www.inkscape.org/namespaces/inkscape"
   version="1.1"
   id="Capa_1"
   x="0px"
   y="0px"
   viewBox="0 0 490.667 490.667"
   style="enable-background:new 0 0 490.667 490.667;"
   xml:space="preserve"
   sodipodi:docname="customer.svg"
   inkscape:version="1.0.2-2 (e86c870879, 2021-01-15)"><metadata
   id="metadata73"><rdf:RDF><cc:Work
       rdf:about=""><dc:format>image/svg+xml</dc:format><dc:type
         rdf:resource="http://purl.org/dc/dcmitype/StillImage" /><dc:title></dc:title></cc:Work></rdf:RDF></metadata><defs
   id="defs71" /><sodipodi:namedview
   pagecolor="#ffffff"
   bordercolor="#666666"
   borderopacity="1"
   objecttolerance="10"
   gridtolerance="10"
   guidetolerance="10"
   inkscape:pageopacity="0"
   inkscape:pageshadow="2"
   inkscape:window-width="1920"
   inkscape:window-height="1017"
   id="namedview69"
   showgrid="false"
   inkscape:zoom="1.7323358"
   inkscape:cx="245.3335"
   inkscape:cy="245.3335"
   inkscape:window-x="-8"
   inkscape:window-y="-8"
   inkscape:window-maximized="1"
   inkscape:current-layer="Capa_1" />
<g
   id="g6"
   style="fill:#ff8080">
	<g
   id="g4"
   style="fill:#ff8080">
		<circle
   cx="245.333"
   cy="160"
   r="74.667"
   id="circle2"
   style="fill:#ff8080" />
	</g>
</g>
<g
   id="g12"
   style="fill:#ff5555">
	<g
   id="g10"
   style="fill:#ff5555">
		<circle
   cx="394.667"
   cy="224"
   r="53.333"
   id="circle8"
   style="fill:#ff8080" />
	</g>
</g>
<g
   id="g18"
   style="fill:#ff8080">
	<g
   id="g16"
   style="fill:#ff8080">
		<circle
   cx="97.515"
   cy="224"
   r="53.333"
   id="circle14"
   style="fill:#ff8080" />
	</g>
</g>
<g
   id="g24"
   style="fill:#ffe680">
	<g
   id="g22"
   style="fill:#ffe680">
		<path
   d="m 245.333,256 c -76.459,0 -138.667,62.208 -138.667,138.667 0,5.888 5.18614,12.81844 10.667,10.667 86.8485,-34.09114 172.23004,-35.17601 256,0 C 378.7618,407.61362 384,400.555 384,394.667 384,318.208 321.792,256 245.333,256 Z"
   id="path20"
   sodipodi:nodetypes="ssssss"
   style="fill:#ffe680" />
	</g>
</g>
<g
   id="g30"
   style="fill:#ffe680">
	<g
   id="g28"
   style="fill:#ffe680">
		<path
   d="m 115.904,300.971 c -6.528,-1.387 -13.163,-2.304 -19.904,-2.304 -52.928,0 -96,43.072 -96,96 0,5.888 5.8313071,14.02626 10.667,10.667 27.558169,-19.14411 52.0714,-9.3613 76.629,0 -1.195,-3.349 -1.963,-6.912 -1.963,-10.667 0,-35.008 11.435,-67.328 30.571,-93.696 z"
   id="path26"
   sodipodi:nodetypes="cssscsc"
   style="fill:#ffe680" />
	</g>
</g>
<g
   id="g36"
   style="fill:#ffe680">
	<g
   id="g34"
   style="fill:#ffe680">
		<path
   d="m 394.667,298.667 c -6.741,0 -13.376,0.917 -19.904,2.304 19.136,26.368 30.571,58.688 30.571,93.696 0,3.755 -0.768,7.317 -1.963,10.667 22.92457,-10.47371 46.16272,-19.69311 76.629,0 4.9449,3.19633 10.667,-4.779 10.667,-10.667 0,-52.928 -43.072,-96 -96,-96 z"
   id="path32"
   sodipodi:nodetypes="scscsss"
   style="fill:#ffe680" />
	</g>
</g>
<g
   id="g38">
</g>
<g
   id="g40">
</g>
<g
   id="g42">
</g>
<g
   id="g44">
</g>
<g
   id="g46">
</g>
<g
   id="g48">
</g>
<g
   id="g50">
</g>
<g
   id="g52">
</g>
<g
   id="g54">
</g>
<g
   id="g56">
</g>
<g
   id="g58">
</g>
<g
   id="g60">
</g>
<g
   id="g62">
</g>
<g
   id="g64">
</g>
<g
   id="g66">
</g>
</svg>
