<svg id="Capa_1" enable-background="new 0 0 483.251 483.251" height="512" viewBox="0 0 483.251 483.251" width="512" xmlns="http://www.w3.org/2000/svg"><g><g id="icon_62_"><path d="m475.367 195.095v264.582c.049 6.6-2.742 12.903-7.661 17.303l-.695.695c-4.243 3.617-9.641 5.595-15.217 5.575h-420.331c-5.536-.001-10.89-1.978-15.099-5.575-.287-.169-.526-.408-.695-.695-4.956-4.385-7.791-10.686-7.785-17.303v-264.582c-.055-5.882 2.196-11.552 6.271-15.794 1.661-1.961 3.657-3.613 5.893-4.88 3.489-1.909 7.403-2.908 11.38-2.905h420.361c6.598.119 12.873 2.879 17.421 7.661 3.952 4.361 6.147 10.033 6.157 15.918z" fill="#f6b863"/><path d="m469.232 179.154c-1.656 2.045-227.483 181.639-227.483 181.639l-227.607-181.439.1-.094v-.1l214.619-174.591c7.49-6.092 18.228-6.092 25.719 0z" fill="#eaa14e"/><path d="m421.219 57.415v160.405l-179.493 142.973-179.594-143.167v-160.211z" fill="#eeefee"/><path d="m467.677 476.968c-.202.252-.432.481-.684.684l-202.189-134.875 18.505-14.904z" fill="#eaa14e"/><path d="m218.541 342.677-202.189 134.957c-.297-.146-.538-.386-.684-.684l184.273-149.273z" fill="#eaa14e"/><g fill="#dbd8dd"><path d="m101.912 99.517h279.421v12.123h-279.421z"/><path d="m101.912 146.275h279.421v12.123h-279.421z"/><path d="m101.912 193.039h279.421v12.123h-279.421z"/><path d="m148.841 239.796h185.57v12.123h-185.57z"/></g></g></g></svg>