<?xml version="1.0" encoding="iso-8859-1"?>
<!-- Generator: Adobe Illustrator 19.0.0, SVG Export Plug-In . SVG Version: 6.00 Build 0)  -->
<svg version="1.1" id="Capa_1" xmlns="http://www.w3.org/2000/svg" xmlns:xlink="http://www.w3.org/1999/xlink" x="0px" y="0px"
	 viewBox="0 0 480 480" style="enable-background:new 0 0 480 480;" xml:space="preserve">
<g>
	<path style="fill:#DFDEED;" d="M344,128v198.228c9.815,8.693,10.725,23.696,2.032,33.511c-0.636,0.718-1.314,1.397-2.032,2.032
		v9.605c14.569,6.351,23.992,20.73,24,36.623v8h3.377c8.805-20.226,32.339-29.485,52.566-20.68c9.26,4.031,16.649,11.42,20.68,20.68
		H472V128H344z"/>
	<path style="fill:#DFDEED;" d="M128,344c0.014-6.793,2.924-13.257,8-17.772V128H8v288h27.377
		c8.805-20.226,32.339-29.485,52.566-20.68c9.26,4.031,16.649,11.42,20.68,20.68H112v-8c0.008-15.893,9.431-30.272,24-36.623v-9.605
		C130.924,357.257,128.014,350.793,128,344z"/>
</g>
<path style="fill:#92B1F9;" d="M136,8v318.228c5.702-5.215,13.582-7.335,21.131-5.683c12.952,2.828,21.158,15.62,18.33,28.572
	C173.052,360.145,163.287,368.005,152,368c22.091,0,40,17.909,40,40c0-26.51,21.49-48,48-48s48,21.49,48,48
	c0-22.091,17.909-40,40-40c-13.257,0.005-24.008-10.737-24.013-23.994c-0.005-11.287,7.855-21.052,18.882-23.46
	c7.549-1.652,15.429,0.467,21.131,5.683V8H136z"/>
<circle style="fill:#F73445;" cx="240" cy="328" r="32"/>
<g>
	<circle style="fill:#FED966;" cx="72" cy="368" r="24"/>
	<circle style="fill:#FED966;" cx="408" cy="368" r="24"/>
</g>
<path style="fill:#F73445;" d="M240,360c26.51,0,48,21.49,48,48v64l0,0h-96l0,0v-64C192,381.49,213.49,360,240,360z"/>
<g>
	<path style="fill:#FED966;" d="M72,392c22.091,0,40,17.909,40,40v40l0,0H32l0,0v-40C32,409.909,49.909,392,72,392z"/>
	<path style="fill:#FED966;" d="M152,368c22.091,0,40,17.909,40,40v64l0,0h-80l0,0v-64C112,385.909,129.909,368,152,368z"/>
	<circle style="fill:#FED966;" cx="152" cy="344" r="24"/>
	<path style="fill:#FED966;" d="M408,392c22.091,0,40,17.909,40,40v40l0,0h-80l0,0v-40C368,409.909,385.909,392,408,392z"/>
	<path style="fill:#FED966;" d="M328,368c22.091,0,40,17.909,40,40v64l0,0h-80l0,0v-64C288,385.909,305.909,368,328,368z"/>
	<circle style="fill:#FED966;" cx="328" cy="344" r="24"/>
	<path style="fill:#FED966;" d="M192,40h96v64h-96V40z"/>
</g>
<path d="M168,160h16v16h-16V160z"/>
<path d="M168,192h16v16h-16V192z"/>
<path d="M168,224h16v16h-16V224z"/>
<path d="M168,256h16v16h-16V256z"/>
<path d="M200,160h16v16h-16V160z"/>
<path d="M200,192h16v16h-16V192z"/>
<path d="M200,224h16v16h-16V224z"/>
<path d="M200,256h16v16h-16V256z"/>
<path d="M232,160h16v16h-16V160z"/>
<path d="M232,192h16v16h-16V192z"/>
<path d="M232,224h16v16h-16V224z"/>
<path d="M232,256h16v16h-16V256z"/>
<path d="M264,160h16v16h-16V160z"/>
<path d="M200,128h16v16h-16V128z"/>
<path d="M232,128h16v16h-16V128z"/>
<path d="M264,128h16v16h-16V128z"/>
<path d="M264,192h16v16h-16V192z"/>
<path d="M264,224h16v16h-16V224z"/>
<path d="M264,256h16v16h-16V256z"/>
<path d="M296,160h16v16h-16V160z"/>
<path d="M296,192h16v16h-16V192z"/>
<path d="M296,224h16v16h-16V224z"/>
<path d="M296,256h16v16h-16V256z"/>
<path d="M472,120H352V8c0.003-4.416-3.575-7.997-7.991-8c-0.003,0-0.006,0-0.009,0H136c-4.416-0.003-7.997,3.575-8,7.991
	c0,0.003,0,0.006,0,0.009v112H8c-4.416-0.003-7.997,3.575-8,7.991c0,0.003,0,0.006,0,0.009v288c-0.003,4.416,3.575,7.997,7.991,8
	c0.003,0,0.006,0,0.009,0h16.723c-0.464,2.642-0.706,5.318-0.723,8v40c-0.003,4.416,3.575,7.997,7.991,8c0.003,0,0.006,0,0.009,0
	h416c4.416,0.003,7.997-3.575,8-7.991c0-0.003,0-0.006,0-0.009v-40c-0.017-2.682-0.258-5.358-0.723-8H472
	c4.416,0.003,7.997-3.575,8-7.991c0-0.003,0-0.006,0-0.009V128c0.003-4.416-3.575-7.997-7.991-8C472.006,120,472.003,120,472,120z
	 M344,344c0,8.837-7.163,16-16,16s-16-7.163-16-16s7.163-16,16-16C336.832,328.011,343.989,335.168,344,344z M152,328
	c8.837,0,16,7.163,16,16s-7.163,16-16,16s-16-7.163-16-16C136.011,335.168,143.168,328.011,152,328z M104,464H40v-32
	c0-17.673,14.327-32,32-32s32,14.327,32,32V464z M56,368c0-8.837,7.163-16,16-16s16,7.163,16,16s-7.163,16-16,16
	C63.168,383.989,56.011,376.832,56,368z M105.212,397.425c-3.017-2.91-6.4-5.414-10.064-7.449
	c12.202-12.784,11.731-33.04-1.053-45.243c-12.784-12.202-33.04-11.731-45.243,1.053c-11.803,12.365-11.803,31.824,0,44.189
	c-7.636,4.238-13.98,10.467-18.358,18.024H16V136h112v187.056c-10.986,12.327-10.615,31.039,0.852,42.92
	C116.852,372.613,108.253,384.053,105.212,397.425z M184,464h-64v-56c0-17.673,14.327-32,32-32s32,14.327,32,32V464z M280,464h-80
	v-56c0-22.091,17.909-40,40-40s40,17.909,40,40V464z M216,328c0-13.255,10.745-24,24-24c13.255,0,24,10.745,24,24s-10.745,24-24,24
	C226.751,351.986,216.014,341.249,216,328z M288.722,380.495c-5.357-9.444-13.327-17.139-22.953-22.16
	c16.897-14.232,19.057-39.467,4.826-56.364c-14.232-16.897-39.467-19.057-56.364-4.826s-19.057,39.467-4.826,56.364
	c1.468,1.743,3.082,3.357,4.826,4.826c-9.626,5.021-17.597,12.716-22.953,22.16c-4.206-6-9.722-10.965-16.13-14.519
	c12.265-12.547,12.037-32.662-0.511-44.927c-8.079-7.897-19.744-10.91-30.637-7.913V16h192v297.136
	c-2.607-0.719-5.296-1.101-8-1.136c-17.626-0.047-31.953,14.204-32,31.831c-0.022,8.248,3.151,16.185,8.852,22.145
	C298.444,369.53,292.928,374.495,288.722,380.495L288.722,380.495z M360,432v32h-64v-56c0-17.673,14.327-32,32-32s32,14.327,32,32
	V432z M440,464h-64v-32c0-17.673,14.327-32,32-32s32,14.327,32,32V464z M392,368c0-8.837,7.163-16,16-16s16,7.163,16,16
	s-7.163,16-16,16C399.168,383.989,392.011,376.832,392,368z M464,408h-14.494c-4.377-7.557-10.722-13.786-18.358-18.024
	c12.202-12.784,11.731-33.04-1.053-45.243c-12.784-12.202-33.04-11.731-45.243,1.053c-11.803,12.365-11.803,31.824,0,44.189
	c-3.664,2.035-7.048,4.539-10.064,7.449c-3.04-13.372-11.64-24.812-23.64-31.449c11.467-11.881,11.839-30.593,0.853-42.92V136h112
	L464,408z"/>
<path d="M376,184h16v128h-16V184z"/>
<path d="M424,184h16v128h-16V184z"/>
<path d="M40,184h16v128H40V184z"/>
<path d="M88,184h16v128H88V184z"/>
<path d="M192,112h96c4.416,0.003,7.997-3.575,8-7.991c0-0.003,0-0.006,0-0.009V40c0.003-4.416-3.575-7.997-7.991-8
	c-0.003,0-0.006,0-0.009,0h-96c-4.416-0.003-7.997,3.575-8,7.991c0,0.003,0,0.006,0,0.009v64c-0.003,4.416,3.575,7.997,7.991,8
	C191.994,112,191.997,112,192,112z M200,48h80v48h-80V48z"/>
<g>
</g>
<g>
</g>
<g>
</g>
<g>
</g>
<g>
</g>
<g>
</g>
<g>
</g>
<g>
</g>
<g>
</g>
<g>
</g>
<g>
</g>
<g>
</g>
<g>
</g>
<g>
</g>
<g>
</g>
</svg>
