<svg height="512pt" viewBox="0 -5 512 512" width="512pt" xmlns="http://www.w3.org/2000/svg"><g fill="#e3ded9"><path d="m146.339844 424.707031h80.929687v15.40625h-80.929687zm0 0"/><path d="m60.59375 62.078125h15.402344v168.339844h-15.402344zm0 0"/><path d="m96.746094 245.226562h111.871094v15.402344h-111.871094zm0 0"/><path d="m268.277344 101.648438h-15.40625v-16.464844c0-12.742188 10.367187-23.105469 23.109375-23.105469h88.246093v15.402344h-88.246093c-4.25 0-7.703125 3.457031-7.703125 7.703125zm0 0"/><path d="m252.871094 154.921875h15.40625v36.667969h-15.40625zm0 0"/><path d="m242.683594 303.414062h15.40625v93.25h-15.40625zm0 0"/><path d="m429.746094 370.382812h15.40625v79.691407h-15.40625zm0 0"/><path d="m445.152344 306.828125h-15.40625v-38.496094c0-4.628906-2.652344-7.703125-4.410156-7.703125h-118.164063v-15.402344h118.164063c10.925781 0 19.816406 10.363282 19.816406 23.105469zm0 0"/></g><path d="m97.109375 251.546875c0 17.109375-3.597656 30.980469-20.710937 30.980469-17.109376 0-30.980469-13.871094-30.980469-30.980469 0-17.113281 13.871093-30.980469 30.980469-30.980469 17.113281 0 20.710937 13.871094 20.710937 30.980469zm0 0" fill="#9ddbdf"/><path d="m76.234375 220.609375c-5.609375.027344-10.859375 1.554687-15.382813 4.1875 9.332032 5.296875 15.660157 15.289063 15.722657 26.789063s-6.15625 21.5625-15.433594 26.957031c4.554687 2.585937 9.820313 4.054687 15.429687 4.023437 17.109376-.089844 30.902344-14.035156 30.8125-31.144531-.09375-17.109375-14.039062-30.90625-31.148437-30.8125zm0 0" fill="#7cd6e6"/><path d="m299.984375 154.921875h-88.132813c-8.472656 0-15.402343-6.933594-15.402343-15.40625v-22.859375c0-8.472656 6.929687-15.402344 15.402343-15.402344h88.132813c8.472656 0 15.402344 6.929688 15.402344 15.402344v22.859375c0 8.472656-6.929688 15.40625-15.402344 15.40625zm0 0" fill="#5e8ee1"/><path d="m310.253906 101.253906h-30.808594c8.46875 0 15.402344 6.929688 15.402344 15.402344v22.859375c0 8.472656-6.933594 15.40625-15.402344 15.40625h30.808594c8.472656 0 15.402344-6.933594 15.402344-15.40625v-22.859375c0-8.472656-6.929688-15.402344-15.402344-15.402344zm0 0" fill="#467bff"/><path d="m131.691406 501.3125h-116.285156c-8.472656 0-15.40625-6.933594-15.40625-15.40625v-113.113281c0-8.472657 6.933594-15.402344 15.40625-15.402344h116.285156c8.472656 0 15.40625 6.929687 15.40625 15.402344v113.113281c0 8.472656-6.933594 15.40625-15.40625 15.40625zm0 0" fill="#ffe056"/><path d="m135.800781 357.390625h-30.808593c8.46875 0 15.402343 6.929687 15.402343 15.402344v113.113281c0 8.472656-6.933593 15.40625-15.402343 15.40625h30.808593c8.472657 0 15.402344-6.933594 15.402344-15.40625v-113.113281c0-8.472657-6.929687-15.402344-15.402344-15.402344zm0 0" fill="#f9cd45"/><path d="m305.367188 250.242188c0 32.707031-16.246094 59.222656-48.953126 59.222656-32.710937 0-59.222656-26.515625-59.222656-59.222656 0-32.710938 26.511719-59.222657 59.222656-59.222657 32.707032 0 48.953126 26.515625 48.953126 59.222657zm0 0" fill="#ffd5cc"/><path d="m256.414062 191.019531c-5.332031 0-10.492187.714844-15.40625 2.035157 25.234376 6.78125 43.816407 29.808593 43.816407 57.1875 0 27.375-18.582031 50.402343-43.816407 57.183593 4.914063 1.324219 10.074219 2.039063 15.40625 2.039063 32.707032 0 59.222657-26.515625 59.222657-59.222656 0-32.710938-26.515625-59.222657-59.222657-59.222657zm0 0" fill="#fdb1aa"/><path d="m278.339844 250.242188c0 12.109374-9.816406 21.925781-21.925782 21.925781-12.113281 0-21.929687-9.816407-21.929687-21.925781 0-12.113282 9.816406-21.929688 21.929687-21.929688 12.109376 0 21.925782 9.816406 21.925782 21.929688zm0 0" fill="#fff4f1"/><path d="m458.4375 469.386719c0 17.109375-3.597656 30.980469-20.710938 30.980469-17.109374 0-30.980468-13.871094-30.980468-30.980469s13.871094-30.980469 30.980468-30.980469c17.113282 0 20.710938 13.871094 20.710938 30.980469zm0 0" fill="#5e8ee1"/><path d="m437.730469 438.40625c-5.609375 0-10.867188 1.496094-15.40625 4.105469 9.304687 5.34375 15.574219 15.375 15.574219 26.875s-6.269532 21.53125-15.574219 26.875c4.539062 2.605469 9.796875 4.105469 15.40625 4.105469 17.109375 0 30.980469-13.871094 30.980469-30.980469-.003907-17.109375-13.871094-30.980469-30.980469-30.980469zm0 0" fill="#2970d6"/><path d="m272.414062 420.453125c0 19.664063-5.667968 35.601563-25.328124 35.601563-19.660157 0-35.597657-15.9375-35.597657-35.601563 0-19.660156 15.9375-35.597656 35.597657-35.597656 19.660156 0 25.328124 15.9375 25.328124 35.597656zm0 0" fill="#ffe89f"/><path d="m247.085938 384.855469c-6.445313 0-12.484376 1.722656-17.699219 4.71875 10.691406 6.144531 17.894531 17.667969 17.894531 30.882812 0 13.214844-7.207031 24.738281-17.894531 30.878907 5.214843 2.996093 11.253906 4.71875 17.699219 4.71875 19.660156 0 35.597656-15.9375 35.597656-35.597657.003906-19.664062-15.9375-35.601562-35.597656-35.601562zm0 0" fill="#f9e075"/><path d="m496.59375 382.824219h-137.613281c-8.472657 0-15.40625-6.933594-15.40625-15.40625v-45.1875c0-8.472657 6.933593-15.402344 15.40625-15.402344h137.613281c8.472656 0 15.40625 6.929687 15.40625 15.402344v45.1875c0 8.472656-6.933594 15.40625-15.40625 15.40625zm0 0" fill="#fc9086"/><path d="m496.59375 306.828125h-30.808594c8.472656 0 15.40625 6.929687 15.40625 15.402344v45.1875c0 8.472656-6.933594 15.40625-15.40625 15.40625h30.808594c8.472656 0 15.40625-6.933594 15.40625-15.40625v-45.1875c0-8.472657-6.933594-15.402344-15.40625-15.402344zm0 0" fill="#f57a73"/><path d="m153.371094 75.996094h-137.613282c-8.472656 0-15.40625-6.933594-15.40625-15.402344v-45.1875c0-8.472656 6.933594-15.40625 15.40625-15.40625h137.613282c8.472656 0 15.40625 6.933594 15.40625 15.40625v45.1875c0 8.46875-6.933594 15.402344-15.40625 15.402344zm0 0" fill="#f86654"/><path d="m158.507812 0h-30.808593c8.472656 0 15.402343 6.933594 15.402343 15.40625v45.1875c0 8.46875-6.929687 15.402344-15.402343 15.402344h30.808593c8.472657 0 15.402344-6.933594 15.402344-15.402344v-45.1875c0-8.472656-6.929687-15.40625-15.402344-15.40625zm0 0" fill="#ea543c"/><path d="m487.027344 144.949219h-116.289063c-8.472656 0-15.402343-6.933594-15.402343-15.40625v-113.109375c0-8.472656 6.929687-15.40625 15.402343-15.40625h116.289063c8.472656 0 15.402344 6.933594 15.402344 15.40625v113.109375c0 8.472656-6.929688 15.40625-15.402344 15.40625zm0 0" fill="#ffe056"/><path d="m492.160156 1.027344h-30.808594c8.472657 0 15.40625 6.933594 15.40625 15.40625v113.109375c0 8.472656-6.933593 15.40625-15.40625 15.40625h30.808594c8.472656 0 15.40625-6.933594 15.40625-15.40625v-113.109375c0-8.472656-6.933594-15.40625-15.40625-15.40625zm0 0" fill="#f9cd45"/><path d="m102.632812 398.003906h-66.382812c-4.253906 0-7.703125-3.449218-7.703125-7.703125 0-4.253906 3.449219-7.703125 7.703125-7.703125h66.382812c4.253907 0 7.699219 3.449219 7.699219 7.703125 0 4.253907-3.445312 7.703125-7.699219 7.703125zm0 0" fill="#f9cd45"/><path d="m102.632812 437.050781h-66.382812c-4.253906 0-7.703125-3.449219-7.703125-7.699219 0-4.253906 3.449219-7.703124 7.703125-7.703124h66.382812c4.253907 0 7.699219 3.449218 7.699219 7.703124 0 4.25-3.445312 7.699219-7.699219 7.699219zm0 0" fill="#f9cd45"/><path d="m102.632812 476.101562h-66.382812c-4.253906 0-7.703125-3.449218-7.703125-7.703124 0-4.253907 3.449219-7.703126 7.703125-7.703126h66.382812c4.253907 0 7.699219 3.449219 7.699219 7.703126 0 4.253906-3.445312 7.703124-7.699219 7.703124zm0 0" fill="#f9cd45"/><path d="m462.074219 41.640625h-66.382813c-4.253906 0-7.703125-3.445313-7.703125-7.699219s3.449219-7.703125 7.703125-7.703125h66.382813c4.253906 0 7.703125 3.449219 7.703125 7.703125s-3.449219 7.699219-7.703125 7.699219zm0 0" fill="#f9cd45"/><path d="m462.074219 80.691406h-66.382813c-4.253906 0-7.703125-3.449218-7.703125-7.703125 0-4.253906 3.449219-7.703125 7.703125-7.703125h66.382813c4.253906 0 7.703125 3.449219 7.703125 7.703125 0 4.253907-3.449219 7.703125-7.703125 7.703125zm0 0" fill="#f9cd45"/><path d="m462.074219 119.738281h-66.382813c-4.253906 0-7.703125-3.449219-7.703125-7.703125s3.449219-7.699218 7.703125-7.699218h66.382813c4.253906 0 7.703125 3.445312 7.703125 7.699218s-3.449219 7.703125-7.703125 7.703125zm0 0" fill="#f9cd45"/></svg>