<?xml version="1.0" encoding="UTF-8" standalone="no"?>
<svg
   xmlns:dc="http://purl.org/dc/elements/1.1/"
   xmlns:cc="http://creativecommons.org/ns#"
   xmlns:rdf="http://www.w3.org/1999/02/22-rdf-syntax-ns#"
   xmlns:svg="http://www.w3.org/2000/svg"
   xmlns="http://www.w3.org/2000/svg"
   xmlns:sodipodi="http://sodipodi.sourceforge.net/DTD/sodipodi-0.dtd"
   xmlns:inkscape="http://www.inkscape.org/namespaces/inkscape"
   id="Layer_1"
   enable-background="new 0 0 512 512"
   height="512"
   viewBox="0 0 512 512"
   width="512"
   version="1.1"
   sodipodi:docname="information.svg"
   inkscape:version="1.0.2-2 (e86c870879, 2021-01-15)">
  <metadata
     id="metadata51">
    <rdf:RDF>
      <cc:Work
         rdf:about="">
        <dc:format>image/svg+xml</dc:format>
        <dc:type
           rdf:resource="http://purl.org/dc/dcmitype/StillImage" />
      </cc:Work>
    </rdf:RDF>
  </metadata>
  <defs
     id="defs49" />
  <sodipodi:namedview
     pagecolor="#ffffff"
     bordercolor="#666666"
     borderopacity="1"
     objecttolerance="10"
     gridtolerance="10"
     guidetolerance="10"
     inkscape:pageopacity="0"
     inkscape:pageshadow="2"
     inkscape:window-width="1920"
     inkscape:window-height="1017"
     id="namedview47"
     showgrid="false"
     showguides="true"
     inkscape:guide-bbox="true"
     inkscape:zoom="1.1739077"
     inkscape:cx="247.98019"
     inkscape:cy="218.40083"
     inkscape:window-x="-8"
     inkscape:window-y="-8"
     inkscape:window-maximized="1"
     inkscape:current-layer="layer2"
     inkscape:document-rotation="0">
    <sodipodi:guide
       position="255.98264,523.92598"
       orientation="1,0"
       id="guide988" />
    <sodipodi:guide
       position="-187.40825,254.73958"
       orientation="0,-1"
       id="guide990" />
  </sodipodi:namedview>
  <g
     inkscape:groupmode="layer"
     id="layer1"
     inkscape:label="Layer 1"
     style="display:none;opacity:0.322581">
    <g
       id="g44"
       transform="translate(0.40906923,-0.44405961)">
      <g
         id="g26">
        <g
           id="g18">
          <g
             id="g12">
            <path
               d="M 454.708,465.549 H 57.291 V 249.794 c 0,-11.776 9.546,-21.322 21.322,-21.322 h 354.773 c 11.776,0 21.322,9.546 21.322,21.322 z"
               fill="#6967bf"
               id="path2" />
            <path
               d="m 433.386,228.472 h -40 c 11.776,0 21.322,9.546 21.322,21.322 v 215.755 h 40 V 249.794 c 0,-11.776 -9.546,-21.322 -21.322,-21.322 z"
               fill="#5b59b2"
               id="path4" />
            <path
               d="M 483.178,504.461 H 28.822 C 17.046,504.461 7.5,494.915 7.5,483.139 v -17.59 h 497 v 17.59 c 0,11.776 -9.546,21.322 -21.322,21.322 z"
               fill="#7776d0"
               id="path6" />
            <path
               d="m 464.5,465.549 v 17.59 c 0,11.776 -9.546,21.322 -21.322,21.322 h 40 c 11.776,0 21.322,-9.546 21.322,-21.322 v -17.59 z"
               fill="#6967bf"
               id="path8" />
            <path
               d="M 92.758,264.007 H 419.242 V 465.549 H 92.758 Z"
               fill="#d9ddff"
               id="path10" />
          </g>
          <path
             d="M 334.381,31.568 C 270.583,-11.728 183.771,4.883 140.483,68.67 c -43.288,63.787 -26.662,150.595 37.137,193.892 18.166,12.328 38.199,19.792 58.561,22.7 l 19.648,30.33 20.666,-30.452 c 37.272,-5.535 72.199,-26.045 95.024,-59.679 43.287,-63.789 26.66,-150.597 -37.138,-193.893 z"
             fill="#ffd54d"
             id="path14" />
          <path
             d="M 334.381,31.568 C 304.396,11.219 269.328,4.104 236.084,8.899 c 20.271,2.934 40.209,10.394 58.297,22.669 63.799,43.296 80.425,130.104 37.137,193.892 -22.825,33.633 -57.752,54.144 -95.024,59.679 l -0.201,0.297 19.535,30.156 20.666,-30.452 c 37.272,-5.535 72.199,-26.045 95.024,-59.679 43.288,-63.789 26.661,-150.597 -37.137,-193.893 z"
             fill="#ffc919"
             id="path16" />
        </g>
        <g
           fill="#ffffff"
           id="g24">
          <path
             d="m 256,231.269 c -10.225,0 -18.514,-8.289 -18.514,-18.514 v -60.674 c 0,-10.225 8.289,-18.514 18.514,-18.514 10.225,0 18.514,8.289 18.514,18.514 v 60.674 c 0,10.225 -8.289,18.514 -18.514,18.514 z"
             id="path20" />
          <path
             d="m 256,106.41 c -10.225,0 -18.514,-8.289 -18.514,-18.514 0,-10.225 8.289,-18.514 18.514,-18.514 10.225,0 18.514,8.289 18.514,18.514 0,10.225 -8.289,18.514 -18.514,18.514 z"
             id="path22" />
        </g>
      </g>
      <g
         id="g42">
        <path
           d="M 504.5,458.049 H 462.208 V 249.794 c 0,-15.893 -12.93,-28.822 -28.822,-28.822 H 383.197 C 421.679,154.844 402.852,68.973 338.592,25.362 277.529,-16.078 194.683,-5.702 145.885,49.499 c -2.744,3.104 -2.452,7.843 0.652,10.586 3.104,2.744 7.844,2.452 10.586,-0.652 C 200.938,9.87 275.33,0.557 330.169,37.774 c 60.274,40.905 76.039,123.211 35.142,183.474 -20.68,30.473 -53.455,51.056 -89.919,56.472 -2.075,0.308 -3.926,1.471 -5.104,3.207 l -14.315,21.094 -13.499,-20.837 c -1.179,-1.82 -3.087,-3.041 -5.234,-3.347 -19.964,-2.851 -38.607,-10.078 -55.409,-21.481 -26.199,-17.78 -45.153,-44.385 -53.371,-74.914 -8.133,-30.216 -5.315,-62.358 7.935,-90.503 1.764,-3.748 0.156,-8.216 -3.591,-9.98 -3.748,-1.766 -8.216,-0.157 -9.98,3.591 -14.761,31.354 -17.903,67.149 -8.848,100.791 3.383,12.567 8.399,24.536 14.851,35.632 H 78.614 c -15.893,0 -28.822,12.93 -28.822,28.822 V 458.05 H 7.5 c -4.142,0 -7.5,3.358 -7.5,7.5 v 17.59 c 0,15.893 12.93,28.822 28.822,28.822 h 454.355 c 15.893,0 28.822,-12.93 28.822,-28.822 v -17.59 c 10e-4,-4.143 -3.357,-7.501 -7.499,-7.501 z M 373.24,235.916 c 0.302,0.037 0.609,0.056 0.92,0.056 h 59.226 c 7.622,0 13.822,6.201 13.822,13.822 V 458.049 H 426.742 V 264.007 c 0,-4.142 -3.358,-7.5 -7.5,-7.5 h -64.987 c 6.935,-6.212 13.301,-13.1 18.985,-20.591 z M 64.792,249.794 c 0,-7.622 6.201,-13.822 13.822,-13.822 h 59.226 c 0.319,0 0.634,-0.02 0.942,-0.059 5.634,7.429 11.977,14.329 18.957,20.594 H 92.758 c -4.142,0 -7.5,3.358 -7.5,7.5 V 458.049 H 64.792 Z M 497,483.139 c 0,7.622 -6.201,13.822 -13.822,13.822 H 28.822 C 21.2,496.961 15,490.76 15,483.139 v -10.09 h 336.72 c 4.142,0 7.5,-3.358 7.5,-7.5 0,-4.142 -3.358,-7.5 -7.5,-7.5 H 100.258 V 271.507 h 74.076 c 0.898,0 1.759,-0.158 2.556,-0.447 16.818,10.754 35.225,17.839 54.822,21.099 l 17.821,27.509 c 2.924,4.515 9.493,4.565 12.5,0.134 l 18.847,-27.771 c 19.154,-3.292 37.327,-10.351 53.518,-20.547 0.198,0.016 0.399,0.024 0.601,0.024 h 76.742 V 458.05 h -20.067 c -4.142,0 -7.5,3.358 -7.5,7.5 0,4.142 3.358,7.5 7.5,7.5 H 497 Z"
           id="path28" />
        <path
           d="m 229.986,212.754 c 0,14.345 11.67,26.015 26.014,26.015 14.344,0 26.014,-11.67 26.014,-26.015 v -60.673 c 0,-14.345 -11.67,-26.015 -26.014,-26.015 -14.344,0 -26.014,11.67 -26.014,26.015 z m 15,-60.673 c 0,-6.074 4.941,-11.015 11.014,-11.015 6.073,0 11.014,4.941 11.014,11.015 v 60.673 c 0,6.074 -4.941,11.015 -11.014,11.015 -6.073,0 -11.014,-4.941 -11.014,-11.015 z"
           id="path30" />
        <path
           d="m 256,113.91 c 14.344,0 26.014,-11.67 26.014,-26.014 0,-14.345 -11.67,-26.015 -26.014,-26.015 -14.344,0 -26.014,11.67 -26.014,26.015 0,14.344 11.67,26.014 26.014,26.014 z m 0,-37.029 c 6.073,0 11.014,4.941 11.014,11.015 0,6.073 -4.941,11.014 -11.014,11.014 -6.073,0 -11.014,-4.941 -11.014,-11.014 0,-6.074 4.941,-11.015 11.014,-11.015 z"
           id="path32" />
        <path
           d="m 137.84,332.176 h 55.79 c 4.142,0 7.5,-3.358 7.5,-7.5 0,-4.142 -3.358,-7.5 -7.5,-7.5 h -55.79 c -4.142,0 -7.5,3.358 -7.5,7.5 0,4.142 3.358,7.5 7.5,7.5 z"
           id="path34" />
        <path
           d="m 374.16,317.176 h -55.79 c -4.142,0 -7.5,3.358 -7.5,7.5 0,4.142 3.358,7.5 7.5,7.5 h 55.79 c 4.142,0 7.5,-3.358 7.5,-7.5 0,-4.142 -3.358,-7.5 -7.5,-7.5 z"
           id="path36" />
        <path
           d="M 374.16,360.674 H 137.84 c -4.142,0 -7.5,3.358 -7.5,7.5 0,4.142 3.358,7.5 7.5,7.5 h 236.32 c 4.142,0 7.5,-3.358 7.5,-7.5 0,-4.142 -3.358,-7.5 -7.5,-7.5 z"
           id="path38" />
        <path
           d="M 324.16,404.172 H 187.84 c -4.142,0 -7.5,3.358 -7.5,7.5 0,4.142 3.358,7.5 7.5,7.5 h 136.32 c 4.142,0 7.5,-3.358 7.5,-7.5 0,-4.142 -3.358,-7.5 -7.5,-7.5 z"
           id="path40" />
      </g>
    </g>
  </g>
  <g
     inkscape:groupmode="layer"
     id="layer2"
     inkscape:label="Layer 2">
    <circle
       style="opacity:0.996;fill:#fdcd3b;fill-opacity:1;stroke:#000000;stroke-width:30;stroke-miterlimit:4;stroke-dasharray:none"
       id="path982"
       cx="255.77899"
       cy="-257.22342"
       r="229.23557"
       transform="scale(1,-1)" />
    <rect
       style="opacity:0.996;fill:#000000;fill-opacity:1;stroke:#000000;stroke-width:2.59432"
       id="rect984"
       width="55.560837"
       height="222.63823"
       x="228.20222"
       y="193.21562" />
    <circle
       style="opacity:0.996;fill:#000000;fill-opacity:1;stroke:#000000;stroke-width:3.47643"
       id="path986"
       cx="255.98265"
       cy="134.68582"
       r="30.354517" />
  </g>
</svg>
