<svg id="Layer_1" enable-background="new 0 0 512 512" height="512" viewBox="0 0 512 512" width="512" xmlns="http://www.w3.org/2000/svg"><g><g><g><g><path d="m454.708 465.549h-397.417v-215.755c0-11.776 9.546-21.322 21.322-21.322h354.773c11.776 0 21.322 9.546 21.322 21.322z" fill="#6967bf"/><path d="m433.386 228.472h-40c11.776 0 21.322 9.546 21.322 21.322v215.755h40v-215.755c0-11.776-9.546-21.322-21.322-21.322z" fill="#5b59b2"/><path d="m483.178 504.461h-454.356c-11.776 0-21.322-9.546-21.322-21.322v-17.59h497v17.59c0 11.776-9.546 21.322-21.322 21.322z" fill="#7776d0"/><path d="m464.5 465.549v17.59c0 11.776-9.546 21.322-21.322 21.322h40c11.776 0 21.322-9.546 21.322-21.322v-17.59z" fill="#6967bf"/><path d="m92.758 264.007h326.484v201.542h-326.484z" fill="#d9ddff"/></g><path d="m334.381 31.568c-63.798-43.296-150.61-26.685-193.898 37.102s-26.662 150.595 37.137 193.892c18.166 12.328 38.199 19.792 58.561 22.7l19.648 30.33 20.666-30.452c37.272-5.535 72.199-26.045 95.024-59.679 43.287-63.789 26.66-150.597-37.138-193.893z" fill="#ffd54d"/><path d="m334.381 31.568c-29.985-20.349-65.053-27.464-98.297-22.669 20.271 2.934 40.209 10.394 58.297 22.669 63.799 43.296 80.425 130.104 37.137 193.892-22.825 33.633-57.752 54.144-95.024 59.679l-.201.297 19.535 30.156 20.666-30.452c37.272-5.535 72.199-26.045 95.024-59.679 43.288-63.789 26.661-150.597-37.137-193.893z" fill="#ffc919"/></g><g fill="#fff"><path d="m256 231.269c-10.225 0-18.514-8.289-18.514-18.514v-60.674c0-10.225 8.289-18.514 18.514-18.514 10.225 0 18.514 8.289 18.514 18.514v60.674c0 10.225-8.289 18.514-18.514 18.514z"/><path d="m256 106.41c-10.225 0-18.514-8.289-18.514-18.514 0-10.225 8.289-18.514 18.514-18.514 10.225 0 18.514 8.289 18.514 18.514 0 10.225-8.289 18.514-18.514 18.514z"/></g></g><g><path d="m504.5 458.049h-42.292v-208.255c0-15.893-12.93-28.822-28.822-28.822h-50.189c38.482-66.128 19.655-151.999-44.605-195.61-61.063-41.44-143.909-31.064-192.707 24.137-2.744 3.104-2.452 7.843.652 10.586 3.104 2.744 7.844 2.452 10.586-.652 43.815-49.563 118.207-58.876 173.046-21.659 60.274 40.905 76.039 123.211 35.142 183.474-20.68 30.473-53.455 51.056-89.919 56.472-2.075.308-3.926 1.471-5.104 3.207l-14.315 21.094-13.499-20.837c-1.179-1.82-3.087-3.041-5.234-3.347-19.964-2.851-38.607-10.078-55.409-21.481-26.199-17.78-45.153-44.385-53.371-74.914-8.133-30.216-5.315-62.358 7.935-90.503 1.764-3.748.156-8.216-3.591-9.98-3.748-1.766-8.216-.157-9.98 3.591-14.761 31.354-17.903 67.149-8.848 100.791 3.383 12.567 8.399 24.536 14.851 35.632h-50.213c-15.893 0-28.822 12.93-28.822 28.822v208.255h-42.292c-4.142 0-7.5 3.358-7.5 7.5v17.59c0 15.893 12.93 28.822 28.822 28.822h454.355c15.893 0 28.822-12.93 28.822-28.822v-17.59c.001-4.143-3.357-7.501-7.499-7.501zm-131.26-222.133c.302.037.609.056.92.056h59.226c7.622 0 13.822 6.201 13.822 13.822v208.255h-20.466v-194.042c0-4.142-3.358-7.5-7.5-7.5h-64.987c6.935-6.212 13.301-13.1 18.985-20.591zm-308.448 13.878c0-7.622 6.201-13.822 13.822-13.822h59.226c.319 0 .634-.02.942-.059 5.634 7.429 11.977 14.329 18.957 20.594h-64.981c-4.142 0-7.5 3.358-7.5 7.5v194.042h-20.466zm432.208 233.345c0 7.622-6.201 13.822-13.822 13.822h-454.356c-7.622 0-13.822-6.201-13.822-13.822v-10.09h336.72c4.142 0 7.5-3.358 7.5-7.5s-3.358-7.5-7.5-7.5h-251.462v-186.542h74.076c.898 0 1.759-.158 2.556-.447 16.818 10.754 35.225 17.839 54.822 21.099l17.821 27.509c2.924 4.515 9.493 4.565 12.5.134l18.847-27.771c19.154-3.292 37.327-10.351 53.518-20.547.198.016.399.024.601.024h76.742v186.542h-20.067c-4.142 0-7.5 3.358-7.5 7.5s3.358 7.5 7.5 7.5h105.326z"/><path d="m229.986 212.754c0 14.345 11.67 26.015 26.014 26.015s26.014-11.67 26.014-26.015v-60.673c0-14.345-11.67-26.015-26.014-26.015s-26.014 11.67-26.014 26.015zm15-60.673c0-6.074 4.941-11.015 11.014-11.015s11.014 4.941 11.014 11.015v60.673c0 6.074-4.941 11.015-11.014 11.015s-11.014-4.941-11.014-11.015z"/><path d="m256 113.91c14.344 0 26.014-11.67 26.014-26.014 0-14.345-11.67-26.015-26.014-26.015s-26.014 11.67-26.014 26.015c0 14.344 11.67 26.014 26.014 26.014zm0-37.029c6.073 0 11.014 4.941 11.014 11.015 0 6.073-4.941 11.014-11.014 11.014s-11.014-4.941-11.014-11.014c0-6.074 4.941-11.015 11.014-11.015z"/><path d="m137.84 332.176h55.79c4.142 0 7.5-3.358 7.5-7.5s-3.358-7.5-7.5-7.5h-55.79c-4.142 0-7.5 3.358-7.5 7.5s3.358 7.5 7.5 7.5z"/><path d="m374.16 317.176h-55.79c-4.142 0-7.5 3.358-7.5 7.5s3.358 7.5 7.5 7.5h55.79c4.142 0 7.5-3.358 7.5-7.5s-3.358-7.5-7.5-7.5z"/><path d="m374.16 360.674h-236.32c-4.142 0-7.5 3.358-7.5 7.5s3.358 7.5 7.5 7.5h236.32c4.142 0 7.5-3.358 7.5-7.5s-3.358-7.5-7.5-7.5z"/><path d="m324.16 404.172h-136.32c-4.142 0-7.5 3.358-7.5 7.5s3.358 7.5 7.5 7.5h136.32c4.142 0 7.5-3.358 7.5-7.5s-3.358-7.5-7.5-7.5z"/></g></g></svg>