<?xml version="1.0" encoding="UTF-8" standalone="no"?>
<svg
   xmlns:dc="http://purl.org/dc/elements/1.1/"
   xmlns:cc="http://creativecommons.org/ns#"
   xmlns:rdf="http://www.w3.org/1999/02/22-rdf-syntax-ns#"
   xmlns:svg="http://www.w3.org/2000/svg"
   xmlns="http://www.w3.org/2000/svg"
   xmlns:sodipodi="http://sodipodi.sourceforge.net/DTD/sodipodi-0.dtd"
   xmlns:inkscape="http://www.inkscape.org/namespaces/inkscape"
   height="512"
   viewBox="0 0 512 512"
   width="512"
   version="1.1"
   id="svg7"
   sodipodi:docname="logout.svg"
   inkscape:version="1.0.2-2 (e86c870879, 2021-01-15)">
  <metadata
     id="metadata13">
    <rdf:RDF>
      <cc:Work
         rdf:about="">
        <dc:format>image/svg+xml</dc:format>
        <dc:type
           rdf:resource="http://purl.org/dc/dcmitype/StillImage" />
        <dc:title></dc:title>
      </cc:Work>
    </rdf:RDF>
  </metadata>
  <defs
     id="defs11" />
  <sodipodi:namedview
     pagecolor="#ffffff"
     bordercolor="#666666"
     borderopacity="1"
     objecttolerance="10"
     gridtolerance="10"
     guidetolerance="10"
     inkscape:pageopacity="0"
     inkscape:pageshadow="2"
     inkscape:window-width="1920"
     inkscape:window-height="1017"
     id="namedview9"
     showgrid="false"
     inkscape:zoom="0.83007813"
     inkscape:cx="136.11088"
     inkscape:cy="293.93894"
     inkscape:window-x="-8"
     inkscape:window-y="-8"
     inkscape:window-maximized="1"
     inkscape:current-layer="layer2" />
  <g
     inkscape:groupmode="layer"
     id="layer1"
     inkscape:label="Layer 1"
     style="display:none;opacity:0.306452">
    <g
       id="Solid"
       transform="translate(-3.8209996,1.3331295)">
      <path
         d="m 480.971,239.029 -90.51,-90.509 a 24,24 0 0 0 -33.942,0 24,24 0 0 0 0,33.941 L 406.059,232 H 144 a 24,24 0 0 0 -24,24 24,24 0 0 0 24,24 h 262.059 l -49.54,49.539 a 24.000265,24.000265 0 0 0 33.942,33.941 l 90.51,-90.51 a 24,24 0 0 0 0,-33.941 z"
         id="path2" />
      <path
         d="m 304,392 a 24,24 0 0 0 -24,24 v 24 H 72 V 72 h 208 v 24 a 24,24 0 0 0 48,0 V 64 A 40,40 0 0 0 288,24 H 64 A 40,40 0 0 0 24,64 v 384 a 40,40 0 0 0 40,40 h 224 a 40,40 0 0 0 40,-40 v -32 a 24,24 0 0 0 -24,-24 z"
         id="path4" />
    </g>
  </g>
  <g
     inkscape:groupmode="layer"
     id="layer2"
     inkscape:label="Layer 2">
    <rect
       style="opacity:0.996;fill:#ffdd55;stroke:none;stroke-width:5;stroke-miterlimit:4;stroke-dasharray:none;stroke-opacity:1"
       id="rect989-2"
       width="28.111238"
       height="100.51897"
       x="517.46967"
       y="-147.71278"
       transform="rotate(44.576608)"
       inkscape:transform-center-x="-66.444752"
       inkscape:transform-center-y="28.963101" />
    <rect
       style="opacity:0.996;fill:#ffdd55;stroke:none;stroke-width:5;stroke-miterlimit:4;stroke-dasharray:none;stroke-opacity:1"
       id="rect989"
       width="28.111238"
       height="100.51897"
       x="148.72734"
       y="416.36343"
       transform="rotate(-45.423392)" />
    <rect
       style="opacity:0.996;fill:#f95055;stroke:#000000;stroke-width:5"
       id="rect868"
       width="47.703918"
       height="440.40939"
       x="20.444536"
       y="34.926083" />
    <rect
       style="opacity:0.996;fill:#f95055;stroke:#000000;stroke-width:5"
       id="rect870"
       width="295.59393"
       height="37.481651"
       x="20.444536"
       y="34.926083" />
    <rect
       style="opacity:0.996;fill:#f95055;stroke:#000000;stroke-width:5"
       id="rect870-4"
       width="295.59393"
       height="37.481651"
       x="20.444536"
       y="437.85382" />
    <rect
       style="opacity:0.996;fill:#f95055;stroke:none;stroke-width:5.01756"
       id="rect894"
       width="43.103699"
       height="418.04333"
       x="22.444536"
       y="38.926083" />
    <rect
       style="opacity:0.996;fill:#f95055;stroke:#000000;stroke-width:5;stroke-miterlimit:4;stroke-dasharray:none;stroke-opacity:1"
       id="rect894-9"
       width="43.103699"
       height="79.856621"
       x="272.93478"
       y="34.926083" />
    <rect
       style="opacity:0.996;fill:#f95055;stroke:#000000;stroke-width:5;stroke-miterlimit:4;stroke-dasharray:none;stroke-opacity:1"
       id="rect894-9-4"
       width="43.103699"
       height="79.856621"
       x="272.93478"
       y="395.47885" />
    <rect
       style="opacity:0.996;fill:#f95055;stroke:none;stroke-width:1.39741"
       id="rect894-6"
       width="43.103699"
       height="32.425014"
       x="245.20387"
       y="440.45895" />
    <rect
       style="opacity:0.996;fill:#f95055;stroke:none;stroke-width:1.39741"
       id="rect894-6-2"
       width="43.103699"
       height="32.425014"
       x="253.12108"
       y="37.354553" />
    <rect
       style="opacity:0.996;fill:#ffdd55;stroke:none;stroke-width:5.0032;stroke-miterlimit:4;stroke-dasharray:none;stroke-opacity:1"
       id="rect987"
       width="330.1167"
       height="40.885868"
       x="162.63181"
       y="236.81749" />
  </g>
</svg>
