<?xml version="1.0" encoding="iso-8859-1"?>
<!-- Generator: Adobe Illustrator 19.0.0, SVG Export Plug-In . SVG Version: 6.00 Build 0)  -->
<svg version="1.1" id="Capa_1" xmlns="http://www.w3.org/2000/svg" xmlns:xlink="http://www.w3.org/1999/xlink" x="0px" y="0px"
	 viewBox="0 0 512 512" style="enable-background:new 0 0 512 512;" xml:space="preserve">
<path style="fill:#E5E9EA;" d="M512,74.35V437.65c0,17.492-14.179,31.671-31.671,31.671H31.66C14.179,469.321,0,455.142,0,437.65
	V74.35c0-17.492,14.179-31.671,31.66-31.671h448.669C497.821,42.679,512,56.858,512,74.35z"/>
<path style="fill:#D1D1D1;" d="M512,74.35v54.011H0V74.35c0-17.492,14.179-31.671,31.66-31.671h448.669
	C497.821,42.679,512,56.858,512,74.35z"/>
<circle style="fill:#FA3F68;" cx="54.335" cy="85.514" r="19.853"/>
<circle style="fill:#47C97F;" cx="178.678" cy="85.514" r="19.853"/>
<circle style="fill:#FCB65F;" cx="116.506" cy="85.514" r="19.853"/>
<path style="fill:#FA3F68;" d="M146.218,285.931H46.059c-6.315,0-11.435-5.12-11.435-11.435V174.337
	c0-6.315,5.12-11.435,11.435-11.435h100.159c6.315,0,11.435,5.12,11.435,11.435v100.159
	C157.654,280.811,152.534,285.931,146.218,285.931z"/>
<path style="fill:#53BCE9;" d="M306.08,285.931H205.921c-6.315,0-11.435-5.12-11.435-11.435V174.337
	c0-6.315,5.12-11.435,11.435-11.435H306.08c6.315,0,11.435,5.12,11.435,11.435v100.159
	C317.515,280.811,312.395,285.931,306.08,285.931z"/>
<g>
	<path style="fill:#FCB65F;" d="M465.941,285.931H365.782c-6.315,0-11.435-5.12-11.435-11.435V174.337
		c0-6.315,5.12-11.435,11.435-11.435h100.159c6.315,0,11.435,5.12,11.435,11.435v100.159
		C477.376,280.811,472.256,285.931,465.941,285.931z"/>
	<path style="fill:#FCB65F;" d="M146.218,437.919H46.059c-6.315,0-11.435-5.12-11.435-11.435V326.325
		c0-6.315,5.12-11.435,11.435-11.435h100.159c6.315,0,11.435,5.12,11.435,11.435v100.159
		C157.654,432.799,152.534,437.919,146.218,437.919z"/>
</g>
<path style="fill:#FA3F68;" d="M306.08,437.919H205.921c-6.315,0-11.435-5.12-11.435-11.435V326.325
	c0-6.315,5.12-11.435,11.435-11.435H306.08c6.315,0,11.435,5.12,11.435,11.435v100.159
	C317.515,432.799,312.395,437.919,306.08,437.919z"/>
<path style="fill:#53BCE9;" d="M465.941,437.919H365.782c-6.315,0-11.435-5.12-11.435-11.435V326.325
	c0-6.315,5.12-11.435,11.435-11.435h100.159c6.315,0,11.435,5.12,11.435,11.435v100.159
	C477.376,432.799,472.256,437.919,465.941,437.919z"/>
<g>
</g>
<g>
</g>
<g>
</g>
<g>
</g>
<g>
</g>
<g>
</g>
<g>
</g>
<g>
</g>
<g>
</g>
<g>
</g>
<g>
</g>
<g>
</g>
<g>
</g>
<g>
</g>
<g>
</g>
</svg>
