<svg id="Capa_1" enable-background="new 0 0 512 512" height="512" viewBox="0 0 512 512" width="512" xmlns="http://www.w3.org/2000/svg"><g><g><g><g><path d="m256 156.306v265.159l6.817-.862 249.183 33.232v-294.164z" fill="#fab600"/><path d="m0 157.196v296.639l256-32.37v-265.159z" fill="#feca20"/></g><g><path d="m0 453.835h256l36.872-52.388-36.872-153.908z" fill="#fab600"/></g><path d="m256 247.539v206.296h256z" fill="#f59c00"/><g><g><path d="m0 141.306v15c0 36.786 18.849 70.21 50.419 89.412l205.581 125.032 38.854-116.936-38.854-112.508z" fill="#fde01d"/></g><path d="m256 141.306v229.444l205.581-125.032c31.57-19.202 50.419-52.627 50.419-89.412v-15z" fill="#feca20"/></g></g><g><g><path d="m311.409 158.417c0 55.279 44.973 100.252 100.252 100.252l10.009-100.438-10.009-100.066c-55.279 0-100.252 44.973-100.252 100.252z" fill="#7d89e5"/><path d="m411.661 58.165v200.504c55.279 0 100.252-44.973 100.252-100.252s-44.973-100.252-100.252-100.252z" fill="#7270d5"/></g></g></g><g><g><path d="m396.666 115.156v28.266h-28.265v29.99h28.265v28.266h14.995l10.643-43.447-10.643-43.075z" fill="#e7ffff"/><path d="m426.656 143.422v-28.266h-14.995v86.522h14.995v-28.266h28.266v-29.99z" fill="#daf2fe"/></g></g></g></svg>