<svg height="512" viewBox="0 0 512 512" width="512" xmlns="http://www.w3.org/2000/svg"><g><path d="m168 360h-48a8 8 0 0 0 -8 8v80a8 8 0 0 0 8 8h48a8 8 0 0 0 8-8v-80a8 8 0 0 0 -8-8zm-8 80h-32v-64h32z"/><path d="m344 360a8 8 0 0 0 -8 8v80a8 8 0 0 0 8 8h48a8 8 0 0 0 8-8v-80a8 8 0 0 0 -8-8zm40 80h-32v-64h32z"/><path d="m496 280h-72v-224h8a8 8 0 0 0 8-8v-32a8 8 0 0 0 -8-8h-352a8 8 0 0 0 -8 8v32a8 8 0 0 0 8 8h8v224h-72a8 8 0 0 0 -8 8v32a8 8 0 0 0 8 8h8v168a8 8 0 0 0 8 8h448a8 8 0 0 0 8-8v-168h8a8 8 0 0 0 8-8v-32a8 8 0 0 0 -8-8zm-408 208h-48v-160h48zm0-176h-64v-16h64zm0-288h336v16h-336zm224 464h-112v-112h112zm96 0h-80v-120a8 8 0 0 0 -8-8h-128a8 8 0 0 0 -8 8v120h-80v-432h304zm64 0h-48v-160h48zm16-176h-64v-16h64z"/><path d="m384 296h-16v-56a8 8 0 0 0 -8-8h-208a8 8 0 0 0 -8 8v56h-16a8 8 0 0 0 -8 8v24a8 8 0 0 0 8 8h256a8 8 0 0 0 8-8v-24a8 8 0 0 0 -8-8zm-80-48h48v48h-48zm-80 0h64v48h-64zm-64 0h48v48h-48zm216 72h-240v-8h240z"/><path d="m384 160h-16v-56a8 8 0 0 0 -8-8h-208a8 8 0 0 0 -8 8v56h-16a8 8 0 0 0 -8 8v24a8 8 0 0 0 8 8h256a8 8 0 0 0 8-8v-24a8 8 0 0 0 -8-8zm-80-48h48v48h-48zm-80 0h64v48h-64zm-64 0h48v48h-48zm216 72h-240v-8h240z"/></g></svg>