<?xml version="1.0" encoding="UTF-8" standalone="no"?>
<svg
   xmlns:dc="http://purl.org/dc/elements/1.1/"
   xmlns:cc="http://creativecommons.org/ns#"
   xmlns:rdf="http://www.w3.org/1999/02/22-rdf-syntax-ns#"
   xmlns:svg="http://www.w3.org/2000/svg"
   xmlns="http://www.w3.org/2000/svg"
   xmlns:sodipodi="http://sodipodi.sourceforge.net/DTD/sodipodi-0.dtd"
   xmlns:inkscape="http://www.inkscape.org/namespaces/inkscape"
   version="1.1"
   id="Capa_1"
   x="0px"
   y="0px"
   viewBox="0 0 512 512"
   style="enable-background:new 0 0 512 512;"
   xml:space="preserve"
   sodipodi:docname="settings.svg"
   inkscape:version="1.0.2-2 (e86c870879, 2021-01-15)"><metadata
   id="metadata129"><rdf:RDF><cc:Work
       rdf:about=""><dc:format>image/svg+xml</dc:format><dc:type
         rdf:resource="http://purl.org/dc/dcmitype/StillImage" /><dc:title></dc:title></cc:Work></rdf:RDF></metadata><defs
   id="defs127" /><sodipodi:namedview
   pagecolor="#ffffff"
   bordercolor="#666666"
   borderopacity="1"
   objecttolerance="10"
   gridtolerance="10"
   guidetolerance="10"
   inkscape:pageopacity="0"
   inkscape:pageshadow="2"
   inkscape:window-width="1920"
   inkscape:window-height="1017"
   id="namedview125"
   showgrid="false"
   inkscape:zoom="1.6601562"
   inkscape:cx="256"
   inkscape:cy="183.71765"
   inkscape:window-x="-8"
   inkscape:window-y="-8"
   inkscape:window-maximized="1"
   inkscape:current-layer="layer2" />
<g
   inkscape:groupmode="layer"
   id="g1028"
   inkscape:label="Layer 2 copy"
   style="opacity:1"><path
     style="fill:#ffdd55;stroke:#000000;stroke-width:0.782103;stroke-opacity:1"
     d="m 238.92227,120.59188 6.94774,2.3724 c 5.23577,1.78783 8.80722,6.63213 8.97806,12.16316 0.0731,2.14069 0.21346,4.26873 0.42208,6.38543 0.55527,5.52098 -2.37064,10.80533 -7.3485,13.2601 l -6.63471,3.29893 c -6.6042,3.25314 -9.33017,11.23633 -6.09464,17.84856 l 11.75393,23.9432 c 3.25314,6.6042 11.23634,9.33017 17.84856,6.09465 l 6.64471,-3.24593 c 4.98591,-2.43714 10.95616,-1.52 14.98526,2.29628 1.545,1.46558 3.14258,2.87886 4.79372,4.23936 4.27368,3.51135 5.92858,9.30205 4.14643,14.54058 l -2.3724,6.94773 c -2.38301,6.97882 1.3391,14.56215 8.31865,16.94542 l 25.26332,8.62651 c 6.97883,2.38302 14.56215,-1.33909 16.94541,-8.31865 l 2.37241,-6.94773 c 1.78782,-5.23577 6.63212,-8.80722 12.16317,-8.97806 2.14068,-0.0731 4.26872,-0.21344 6.3854,-0.42208 5.521,-0.55527 10.80536,2.37064 13.26011,7.3485 l 3.27175,6.63202 c 3.25315,6.60421 11.23634,9.33018 17.84856,6.09465 l 23.94321,-11.75392 c 6.6042,-3.25315 9.33017,-11.23635 6.09463,-17.84856 l -3.24591,-6.64471 c -2.43714,-4.98591 -1.52,-10.95617 2.29628,-14.98527 1.46558,-1.545 2.87885,-3.14256 4.23934,-4.7937 3.51567,-4.28628 9.31968,-5.93664 14.56803,-4.14451 l 6.94773,2.3724 c 6.97882,2.38302 14.56215,-1.3391 16.94541,-8.31866 l 8.62652,-25.26332 c 2.38301,-6.97882 -1.33909,-14.56215 -8.31865,-16.94542 l -6.94773,-2.3724 c -5.23578,-1.78783 -8.8072,-6.63212 -8.97806,-12.16316 -0.0731,-2.14068 -0.21345,-4.26874 -0.42207,-6.38542 -0.56119,-5.52302 2.37063,-10.80534 7.34849,-13.26011 l 6.63203,-3.27174 c 6.6042,-3.25315 9.33017,-11.236337 6.09464,-17.848566 l -11.7554,-23.943711 c -3.25314,-6.604196 -11.23633,-9.330168 -17.84856,-6.094641 l -6.64472,3.245923 c -4.98588,2.437149 -10.95617,1.519998 -14.98526,-2.296277 -1.54499,-1.465574 -3.14256,-2.87885 -4.79369,-4.239344 -4.28629,-3.515669 -5.9369,-9.31894 -4.14452,-14.568039 l 2.37239,-6.94773 c 2.38301,-6.978814 -1.33908,-14.562145 -8.31864,-16.945413 L 383.26419,7.6743491 C 376.28538,5.2913375 368.70204,9.013443 366.31878,15.992999 l -2.3724,6.947729 c -1.78783,5.235777 -6.63213,8.807221 -12.16317,8.978068 -2.14067,0.07316 -4.26873,0.213447 -6.38542,0.422075 -5.52098,0.555268 -10.80534,-2.37063 -13.2601,-7.348495 l -3.29893,-6.634705 C 325.58562,11.753473 317.60242,9.0275014 310.9902,12.26303 l -23.92234,11.775102 c -6.6042,3.253144 -9.33017,11.236333 -6.09464,17.84856 l 3.24593,6.644711 c 2.43713,4.985898 1.52591,10.958185 -2.29628,14.985257 -1.46558,1.545005 -2.87885,3.142582 -4.23934,4.793717 -3.52006,4.277334 -9.32131,5.922027 -14.56147,4.125259 L 256.1758,70.06374 c -6.9788,-2.383013 -14.56214,1.339102 -16.9454,8.318652 l -8.62677,25.264068 c -2.38302,6.97882 1.33983,14.56241 8.31864,16.94542 z M 359.00138,78.72963 c 4.48659,0.368378 8.91178,1.286859 13.17111,2.734656 2.08661,0.726556 4.12725,1.585336 6.11281,2.566643 0.57651,0.274535 1.12679,0.582276 1.68212,0.877686 1.45316,0.763969 2.84848,1.593312 4.20307,2.478994 0.49575,0.324653 1.004,0.632085 1.4875,0.973217 1.73241,1.204775 3.38815,2.510647 4.96057,3.915329 0.18895,0.170309 0.35006,0.35921 0.52569,0.524964 1.36026,1.261159 2.65318,2.598501 3.87518,3.995931 0.41009,0.471436 0.79471,0.976325 1.20318,1.433159 0.98946,1.233734 1.95898,2.523461 2.85091,3.837101 0.29457,0.43943 0.61423,0.86594 0.8981,1.31494 1.1042,1.7448 2.11644,3.55078 3.02076,5.40419 0.16857,0.35343 0.29875,0.71524 0.45837,1.07304 0.71264,1.5483 1.34906,3.13336 1.90516,4.74804 0.20689,0.59213 0.39666,1.19329 0.5844,1.80038 0.47156,1.57176 0.89304,3.12559 1.1975,4.7535 0.0956,0.46321 0.22155,0.92194 0.30842,1.38879 0.3711,2.05233 0.6134,4.13093 0.74215,6.2129 0.0257,0.48148 0.016,0.96493 0.0422,1.42516 0.0534,1.66121 0.0351,3.32684 -0.0701,4.99754 -0.0384,0.64969 -0.0893,1.2951 -0.14923,1.94489 -0.17723,1.77999 -0.44391,3.55089 -0.79631,5.30659 -0.0767,0.38948 -0.12365,0.77595 -0.20712,1.16316 -0.4188,1.90904 -0.93538,3.79214 -1.56054,5.64478 -0.0862,0.25239 -0.17034,0.49885 -0.29428,0.73835 -0.18323,0.53661 -0.42799,1.06708 -0.63866,1.60175 -0.62976,1.59735 -1.32347,3.15221 -2.09179,4.65927 -0.35589,0.7107 -0.71545,1.4127 -1.10242,2.11279 -0.60058,1.05691 -1.25418,2.06099 -1.91597,3.06972 -3.73853,5.84655 -8.37747,11.06744 -13.745,15.46931 -0.99977,0.82224 -2.11137,1.51456 -3.28861,2.05059 -4.23675,1.89626 -8.64818,3.39405 -13.16903,4.46685 l -1.00405,0.25633 c -1.10966,0.2558 -2.23093,0.54318 -3.32551,0.73305 -4.5611,0.86155 -9.21026,1.11451 -13.83825,0.7681 l -0.82488,-0.0626 c -1.96349,-0.17708 -3.91412,-0.45472 -5.84637,-0.84674 -0.29711,-0.0593 -0.60077,-0.0994 -0.89586,-0.16459 -1.95977,-0.41548 -3.9014,-0.94459 -5.80047,-1.57899 l -0.23389,-0.0799 c -1.43366,-0.48954 -2.78004,-1.11126 -4.13864,-1.71651 -0.66685,-0.29796 -1.38238,-0.53565 -2.03472,-0.85676 -1.95373,-0.97044 -3.85396,-2.05648 -5.68571,-3.23897 -24.64494,-16.22197 -31.47746,-49.35241 -15.25552,-73.99737 10.68188,-16.225997 29.31987,-25.369995 48.68369,-23.89924 z"
     id="path1026" /></g><g
   inkscape:groupmode="layer"
   id="layer2"
   inkscape:label="Layer 2"
   style="display:inline;opacity:1"><path
     style="fill:#ffdd55;stroke:#000000;stroke-width:0.890741;stroke-opacity:1"
     d="m 23.311645,381.05002 h 8.361385 c 6.301101,0 11.933255,3.90679 14.152981,9.80527 0.866691,2.2803 1.801079,4.52229 2.804944,6.72688 2.630357,5.74617 1.421622,12.51847 -3.040099,16.99622 l -5.936788,5.99736 c -5.920755,5.93679 -5.920755,15.54432 0,21.48022 l 21.480216,21.48021 c 5.936788,5.92076 15.544319,5.92076 21.480217,0 l 5.967073,-5.94391 c 4.476863,-4.46172 11.249166,-5.67046 16.996226,-3.0401 2.20458,1.01099 4.44658,1.94627 6.72688,2.80494 5.89848,2.21171 9.81329,7.84387 9.82041,14.14586 v 8.36138 c 0,8.3988 6.80259,15.20228 15.20228,15.20228 h 30.40366 c 8.39879,0 15.20227,-6.80259 15.20227,-15.20228 v -8.36138 c 0,-6.3011 3.90679,-11.93326 9.80528,-14.15298 2.28029,-0.86669 4.52229,-1.80108 6.72687,-2.80494 5.74617,-2.63036 12.51847,-1.42163 16.99623,3.04009 l 5.96707,5.94392 c 5.93679,5.92075 15.54432,5.92075 21.48022,0 l 21.48021,-21.48022 c 5.92076,-5.93679 5.92076,-15.54432 0,-21.48021 l -5.94391,-5.96708 c -4.46172,-4.47686 -5.67046,-11.24916 -3.0401,-16.99622 1.01099,-2.20459 1.94627,-4.44658 2.80494,-6.72688 2.21171,-5.91363 7.8599,-9.82843 14.17615,-9.82843 h 8.36138 c 8.3988,0 15.20228,-6.80259 15.20228,-15.20228 v -30.40366 c 0,-8.39879 -6.80259,-15.20227 -15.20228,-15.20227 h -8.36138 c -6.3011,0 -11.93326,-3.90679 -14.15299,-9.80528 -0.86669,-2.28029 -1.80107,-4.52229 -2.80494,-6.72687 -2.63748,-5.74617 -1.42162,-12.51848 3.0401,-16.99623 l 5.94391,-5.96707 c 5.92076,-5.93679 5.92076,-15.54432 0,-21.48022 l -21.48199,-21.48022 c -5.93679,-5.92075 -15.54432,-5.92075 -21.48022,0 l -5.96707,5.94392 c -4.47687,4.46172 -11.24917,5.67046 -16.99623,3.0401 -2.20458,-1.01099 -4.44658,-1.94627 -6.72688,-2.80495 -5.91362,-2.21171 -9.82843,-7.859 -9.82843,-14.17614 v -8.36138 c 0,-8.3988 -6.80259,-15.20228 -15.20227,-15.20228 h -30.40277 c -8.3988,0 -15.20228,6.80259 -15.20228,15.20228 v 8.36138 c 0,6.3011 -3.90679,11.93326 -9.80527,14.15299 -2.2803,0.86669 -4.52229,1.80107 -6.72688,2.80494 -5.746167,2.63036 -12.51847,1.42162 -16.996224,-3.0401 l -5.997359,-5.93679 c -5.936788,-5.92075 -15.544319,-5.92075 -21.480216,0 L 39.66832,259.26525 c -5.920755,5.93679 -5.920755,15.54432 0,21.48022 l 5.943914,5.96707 c 4.461721,4.47686 5.677582,11.24917 3.040098,16.99623 -1.010991,2.20458 -1.946269,4.44657 -2.804943,6.72687 -2.219726,5.90561 -7.867023,9.81329 -14.176141,9.80528 h -8.359603 c -8.398796,0 -15.2022746,6.80259 -15.2022746,15.20227 v 30.40455 c 0,8.3988 6.8034786,15.20228 15.2022746,15.20228 z M 137.32648,291.7381 c 4.97122,-1.25416 10.07873,-1.89282 15.20227,-1.89995 2.51635,0.0151 5.0318,0.18973 7.533,0.51663 0.72239,0.0837 1.42875,0.21289 2.13599,0.3269 1.8474,0.2886 3.6565,0.66895 5.44243,1.12501 0.6538,0.16746 1.31473,0.31176 1.96141,0.50148 2.31058,0.66093 4.57574,1.45904 6.78745,2.39432 0.26633,0.11401 0.5095,0.25831 0.7598,0.37233 1.93024,0.85867 3.81593,1.82423 5.6473,2.88065 0.6155,0.35719 1.21586,0.7598 1.82423,1.10185 1.5205,0.96556 3.0401,1.99882 4.48488,3.08641 0.47922,0.36521 0.98071,0.70725 1.45191,1.08671 1.83226,1.47417 3.58791,3.04811 5.24468,4.71291 0.31176,0.31888 0.58522,0.66093 0.88896,0.98783 1.3379,1.40648 2.6072,2.88066 3.8008,4.41629 0.44091,0.56206 0.86669,1.14015 1.29246,1.72537 1.0867,1.52049 2.11284,3.0401 3.0401,4.68262 0.27346,0.46408 0.57809,0.91212 0.84353,1.38332 1.15529,2.07543 2.18143,4.22657 3.08642,6.42314 0.20487,0.5095 0.37233,1.03415 0.57007,1.52049 0.66895,1.77079 1.26218,3.57276 1.76367,5.41214 0.19774,0.71438 0.38035,1.42875 0.55493,2.15114 0.46408,1.98368 0.82839,3.99052 1.09472,6.0125 0.0606,0.44805 0.15232,0.88184 0.20487,1.32988 0.25119,2.21171 0.38747,4.43143 0.39549,6.65829 0,0.30374 0,0.60036 -0.0454,0.9041 0,0.64579 -0.0686,1.30761 -0.0989,1.96141 -0.0909,1.9534 -0.26633,3.88452 -0.53979,5.7916 -0.12203,0.89697 -0.25119,1.78593 -0.41063,2.68291 -0.25831,1.36016 -0.59323,2.68291 -0.93528,4.01368 -1.87768,7.67729 -4.95608,15.01165 -9.12118,21.7314 -0.77495,1.25417 -1.71824,2.40946 -2.78981,3.42045 -3.86848,3.60304 -8.07189,6.84089 -12.54964,9.66097 l -0.98783,0.64579 c -1.10185,0.68409 -2.20459,1.40648 -3.31445,2.01397 -4.5989,2.60719 -9.51668,4.59087 -14.6322,5.92075 l -0.91212,0.23605 c -2.18143,0.53177 -4.38601,0.95042 -6.61286,1.23902 -0.34205,0.0454 -0.68409,0.11401 -1.02613,0.15231 -2.26516,0.27346 -4.55258,0.41776 -6.83288,0.4329 h -0.28147 c -1.72537,0 -3.4053,-0.17458 -5.09237,-0.3269 -0.82839,-0.0757 -1.68706,-0.0686 -2.50832,-0.17458 -2.4629,-0.32691 -4.91066,-0.79811 -7.32011,-1.39847 -32.53253,-8.41393 -52.089638,-41.60739 -43.6757,-74.13992 5.541299,-21.41965 22.26407,-38.1344 43.6757,-43.6757 z"
     id="path42" /></g>

<g
   id="g82">
	<path
   style="fill:#78B9EB;"
   d="M230.349,308.207c1.297,2.33,2.449,4.745,3.465,7.211   C232.798,312.951,231.646,310.537,230.349,308.207z"
   id="path44" />
	<path
   style="fill:#78B9EB;"
   d="M234.453,317.158c0.751,1.988,1.417,4.011,1.98,6.076   C235.87,321.169,235.204,319.147,234.453,317.158z"
   id="path46" />
	<path
   style="fill:#78B9EB;"
   d="M238.933,341.333c-0.009-2.483-0.145-4.966-0.418-7.441c0.299,2.807,0.418,5.632,0.367,8.457   C238.933,342.007,238.933,341.675,238.933,341.333z"
   id="path48" />
	<path
   style="fill:#78B9EB;"
   d="M237.056,325.649c0.521,2.227,0.93,4.48,1.229,6.75   C237.986,330.129,237.577,327.876,237.056,325.649z"
   id="path50" />
	<path
   style="fill:#78B9EB;"
   d="M181.521,274.014c2.074,0.324,4.105,0.751,6.11,1.263   C185.626,274.773,183.595,274.338,181.521,274.014z"
   id="path52" />
	<path
   style="fill:#78B9EB;"
   d="M170.667,273.067c2.825,0.017,5.649,0.213,8.457,0.58   C176.316,273.28,173.491,273.084,170.667,273.067z"
   id="path54" />
	<path
   style="fill:#78B9EB;"
   d="M198.315,278.946c2.167,0.964,4.284,2.039,6.34,3.234   C202.598,280.994,200.482,279.91,198.315,278.946z"
   id="path56" />
	<path
   style="fill:#78B9EB;"
   d="M189.833,275.84c2.594,0.742,5.137,1.638,7.62,2.688C194.97,277.478,192.427,276.582,189.833,275.84   z"
   id="path58" />
	<path
   style="fill:#78B9EB;"
   d="M225.963,301.397c1.22,1.707,2.372,3.413,3.413,5.257   C228.335,304.845,227.183,303.087,225.963,301.397z"
   id="path60" />
	<path
   style="fill:#78B9EB;"
   d="M220.254,294.502c1.493,1.579,2.918,3.234,4.267,4.958   C223.181,297.737,221.756,296.081,220.254,294.502z"
   id="path62" />
	<path
   style="fill:#78B9EB;"
   d="M206.703,283.418c1.707,1.084,3.413,2.244,5.035,3.465   C210.108,285.662,208.435,284.501,206.703,283.418z"
   id="path64" />
	<path
   style="fill:#78B9EB;"
   d="M213.333,288.102c2.065,1.647,4.028,3.413,5.888,5.291   C217.361,291.524,215.39,289.758,213.333,288.102z"
   id="path66" />
	<path
   style="fill:#78B9EB;"
   d="M204.365,400.666c-5.188,2.876-10.701,5.103-16.427,6.647   C193.681,405.82,199.202,403.593,204.365,400.666z"
   id="path68" />
	<path
   style="fill:#78B9EB;"
   d="M186.88,407.578c-2.449,0.597-4.924,1.067-7.424,1.391   C181.956,408.644,184.431,408.175,186.88,407.578z"
   id="path70" />
	<path
   style="fill:#78B9EB;"
   d="M170.667,409.6c2.569-0.009,5.129-0.162,7.68-0.461c-2.654,0.307-5.316,0.452-7.987,0.444   L170.667,409.6z"
   id="path72" />
	<path
   style="fill:#78B9EB;"
   d="M164.634,409.216c-0.93-0.085-1.894-0.077-2.816-0.196   C162.739,409.139,163.703,409.131,164.634,409.216z"
   id="path74" />
	<path
   style="fill:#78B9EB;"
   d="M238.771,344.55c-0.094,2.15-0.307,4.318-0.606,6.502   C238.473,348.911,238.669,346.743,238.771,344.55z"
   id="path76" />
	<path
   style="fill:#78B9EB;"
   d="M209.195,397.653c-0.367,0.239-0.734,0.495-1.109,0.725L209.195,397.653z"
   id="path78" />
	<path
   style="fill:#78B9EB;"
   d="M237.705,354.065c-0.273,1.493-0.683,3.004-1.05,4.506   C237.039,357.077,237.414,355.593,237.705,354.065z"
   id="path80" />
</g>

<g
   id="g94">
</g>
<g
   id="g96">
</g>
<g
   id="g98">
</g>
<g
   id="g100">
</g>
<g
   id="g102">
</g>
<g
   id="g104">
</g>
<g
   id="g106">
</g>
<g
   id="g108">
</g>
<g
   id="g110">
</g>
<g
   id="g112">
</g>
<g
   id="g114">
</g>
<g
   id="g116">
</g>
<g
   id="g118">
</g>
<g
   id="g120">
</g>
<g
   id="g122">
</g>
<g
   inkscape:groupmode="layer"
   id="layer1"
   inkscape:label="Layer 1"
   style="display:none;opacity:0.387097"><g
     id="g92"
     transform="translate(56.061,3.395)"><path
       style="fill:#231f20"
       d="m 315.733,298.667 h -9.387 c -3.533,0.009 -6.69,-2.193 -7.902,-5.513 -1.041,-2.731 -2.159,-5.402 -3.362,-8.047 -1.493,-3.217 -0.811,-7.023 1.707,-9.523 l 6.69,-6.699 c 9.933,-10.018 9.916,-26.18 -0.043,-36.173 l -24.115,-24.115 c -10.01,-9.95 -26.172,-9.95 -36.181,0 l -6.69,6.682 c -2.5,2.509 -6.306,3.191 -9.523,1.707 -2.645,-1.203 -5.316,-2.321 -8.055,-3.413 -3.337,-1.203 -5.547,-4.378 -5.538,-7.919 v -9.387 c 0,-14.14 -11.46,-25.6 -25.6,-25.6 H 153.6 c -14.14,0 -25.6,11.46 -25.6,25.6 v 9.387 c 0.009,3.533 -2.193,6.69 -5.513,7.902 -2.731,1.041 -5.402,2.159 -8.047,3.362 -3.217,1.485 -7.023,0.802 -9.523,-1.707 l -6.699,-6.69 c -10.01,-9.941 -26.163,-9.941 -36.173,0 L 37.93,232.713 c -9.95,10.01 -9.95,26.172 0,36.181 l 6.682,6.69 c 2.517,2.5 3.2,6.306 1.707,9.523 -1.203,2.645 -2.321,5.316 -3.371,8.055 -1.22,3.337 -4.412,5.538 -7.962,5.504 H 25.6 c -14.14,0 -25.6,11.46 -25.6,25.6 V 358.4 C 0,372.54 11.46,384 25.6,384 h 9.387 c 3.533,-0.009 6.69,2.193 7.902,5.513 1.041,2.731 2.159,5.402 3.362,8.047 1.493,3.217 0.811,7.023 -1.707,9.523 l -6.69,6.699 c -9.941,10.01 -9.941,26.163 0,36.173 l 24.115,24.115 c 10.01,9.95 26.172,9.95 36.181,0 l 6.69,-6.682 c 2.5,-2.509 6.306,-3.191 9.523,-1.707 2.645,1.203 5.316,2.321 8.055,3.413 3.354,1.186 5.589,4.361 5.581,7.919 v 9.387 c 0,14.14 11.46,25.6 25.6,25.6 h 34.133 c 14.14,0 25.6,-11.46 25.6,-25.6 v -9.387 c -0.009,-3.533 2.193,-6.69 5.513,-7.902 2.731,-1.041 5.402,-2.159 8.047,-3.362 3.217,-1.485 7.023,-0.802 9.523,1.707 l 6.699,6.69 c 10.018,9.924 26.172,9.907 36.173,-0.043 l 24.115,-24.115 c 9.95,-10.01 9.95,-26.172 0,-36.181 l -6.682,-6.69 c -2.517,-2.5 -3.2,-6.306 -1.707,-9.523 1.203,-2.645 2.321,-5.316 3.413,-8.055 1.203,-3.337 4.378,-5.547 7.919,-5.538 h 9.387 c 14.14,0 25.6,-11.46 25.6,-25.6 v -34.133 c 0.001,-14.141 -11.459,-25.601 -25.599,-25.601 z m 8.534,59.733 c 0,4.71 -3.823,8.533 -8.533,8.533 h -9.387 c -10.607,0.043 -20.105,6.596 -23.893,16.503 -0.905,2.389 -1.886,4.745 -2.935,7.057 -4.386,9.685 -2.355,21.069 5.12,28.638 l 6.673,6.682 c 3.337,3.328 3.337,8.73 0.009,12.066 l -0.009,0.009 -24.115,24.115 c -3.328,3.328 -8.73,3.328 -12.066,0 l -6.69,-6.682 c -7.561,-7.475 -18.953,-9.515 -28.638,-5.12 -2.313,1.05 -4.668,2.031 -7.04,2.935 -9.899,3.789 -16.452,13.278 -16.495,23.876 v 9.387 c 0,4.71 -3.823,8.533 -8.533,8.533 H 153.6 c -4.71,0 -8.533,-3.823 -8.533,-8.533 v -9.387 c -0.043,-10.607 -6.596,-20.105 -16.503,-23.893 -2.389,-0.905 -4.745,-1.886 -7.057,-2.935 -9.685,-4.386 -21.069,-2.347 -28.638,5.12 l -6.682,6.673 c -3.328,3.337 -8.73,3.337 -12.066,0.009 l -0.009,-0.009 -24.115,-24.09 c -3.328,-3.328 -3.328,-8.738 0,-12.066 l 6.682,-6.69 c 7.475,-7.569 9.506,-18.953 5.12,-28.638 -1.05,-2.313 -2.031,-4.668 -2.935,-7.04 -3.78,-9.907 -13.269,-16.478 -23.876,-16.521 H 25.6 c -4.71,0 -8.533,-3.823 -8.533,-8.533 v -34.133 c 0,-4.71 3.823,-8.533 8.533,-8.533 h 9.387 c 10.607,-0.043 20.105,-6.596 23.893,-16.503 0.905,-2.389 1.886,-4.745 2.935,-7.057 4.386,-9.685 2.355,-21.069 -5.12,-28.638 l -6.707,-6.682 c -3.337,-3.328 -3.337,-8.73 -0.009,-12.066 l 0.009,-0.009 24.115,-24.115 c 3.337,-3.328 8.73,-3.328 12.066,0 l 6.69,6.682 c 7.561,7.475 18.953,9.515 28.638,5.12 2.313,-1.05 4.668,-2.031 7.04,-2.935 9.916,-3.78 16.478,-13.269 16.529,-23.876 v -9.387 c 0,-4.71 3.823,-8.533 8.533,-8.533 h 34.133 c 4.71,0 8.533,3.823 8.533,8.533 v 9.387 c 0.043,10.607 6.596,20.105 16.503,23.893 2.389,0.905 4.745,1.886 7.057,2.935 9.685,4.395 21.077,2.355 28.638,-5.12 l 6.682,-6.673 c 3.345,-3.311 8.73,-3.311 12.075,0 l 24.115,24.115 c 3.328,3.328 3.328,8.738 0,12.066 l -6.682,6.69 c -7.475,7.569 -9.506,18.953 -5.12,28.638 1.05,2.313 2.031,4.668 2.935,7.04 3.789,9.899 13.278,16.452 23.876,16.495 h 9.387 c 4.71,0 8.533,3.823 8.533,8.533 V 358.4 Z"
       id="path84" /><path
       style="fill:#231f20"
       d="m 247.296,337.92 c -0.085,-2.048 -0.23,-4.087 -0.478,-6.118 -0.273,-2.185 -0.597,-4.352 -1.05,-6.477 -0.299,-1.391 -0.691,-2.765 -1.067,-4.147 -0.478,-1.758 -1.015,-3.49 -1.613,-5.197 -0.418,-1.186 -0.853,-2.364 -1.297,-3.533 -1.101,-2.731 -2.355,-5.402 -3.763,-7.987 -0.111,-0.196 -0.179,-0.41 -0.29,-0.606 -2.219,-3.951 -4.787,-7.697 -7.68,-11.187 -0.247,-0.307 -0.529,-0.597 -0.785,-0.896 -1.178,-1.391 -2.389,-2.739 -3.661,-4.028 -0.666,-0.691 -1.365,-1.34 -2.065,-2.005 -0.853,-0.794 -1.707,-1.579 -2.56,-2.33 -1.033,-0.896 -2.091,-1.766 -3.166,-2.611 l -1.399,-1.041 c -13.201,-9.89 -29.261,-15.232 -45.756,-15.223 -0.853,0 -1.707,0.128 -2.56,0.162 -1.818,0.051 -3.644,0.154 -5.478,0.341 -0.964,0.102 -1.937,0.213 -2.901,0.35 -2.782,0.367 -5.538,0.879 -8.269,1.545 -41.088,10.615 -65.792,52.531 -55.177,93.628 6.997,27.076 28.151,48.213 55.236,55.185 0.137,0 0.282,0.043 0.427,0.077 2.944,0.734 5.931,1.306 8.943,1.707 1.988,0.247 3.977,0.299 5.973,0.393 1.331,0.068 2.56,0.265 3.951,0.265 2.432,0 4.958,-0.162 7.535,-0.418 0.273,0 0.546,-0.077 0.853,-0.111 2.074,-0.23 4.173,-0.538 6.315,-0.964 0.853,-0.162 1.647,-0.375 2.466,-0.563 1.502,-0.35 2.995,-0.717 4.531,-1.169 1.195,-0.358 2.355,-0.777 3.524,-1.186 1.169,-0.41 2.381,-0.853 3.593,-1.314 1.212,-0.461 2.227,-0.99 3.328,-1.502 1.434,-0.657 2.859,-1.306 4.267,-2.074 h 0.051 c 7.962,-4.267 15.317,-9.574 21.871,-15.795 1.766,-1.655 3.311,-3.533 4.574,-5.598 6.665,-10.675 11.034,-22.622 12.851,-35.072 0.239,-1.647 0.452,-3.294 0.58,-4.975 0.119,-1.545 0.205,-3.081 0.239,-4.617 0,-0.486 0.068,-0.947 0.068,-1.434 0.01,-1.205 -0.11,-2.314 -0.161,-3.475 z m -91.622,-54.443 c 4.898,-1.237 9.941,-1.869 14.993,-1.877 2.441,0.017 4.873,0.179 7.296,0.495 0.649,0.077 1.289,0.196 1.929,0.29 1.843,0.29 3.669,0.657 5.47,1.118 0.589,0.154 1.178,0.29 1.758,0.452 4.54,1.306 8.909,3.149 13.013,5.478 0.657,0.384 1.297,0.785 1.946,1.186 1.348,0.853 2.654,1.707 3.942,2.679 0.691,0.503 1.391,0.998 2.057,1.536 1.673,1.34 3.277,2.765 4.804,4.267 0.606,0.614 1.161,1.289 1.749,1.929 0.981,1.067 1.937,2.159 2.85,3.311 0.631,0.794 1.237,1.613 1.835,2.441 0.853,1.229 1.707,2.509 2.475,3.806 0.427,0.708 0.853,1.399 1.289,2.125 1.101,2.022 2.082,4.113 2.935,6.255 0.341,0.853 0.631,1.707 0.939,2.56 0.555,1.57 1.033,3.157 1.451,4.762 0.213,0.853 0.452,1.613 0.631,2.441 0.495,2.304 0.862,4.642 1.084,6.989 0.051,0.623 0.051,1.254 0.094,1.877 0.119,1.963 0.154,3.934 0.077,5.914 0,0.708 -0.06,1.417 -0.102,2.116 -0.154,2.065 -0.418,4.13 -0.768,6.204 -3.191,17.741 -14.208,33.101 -29.986,41.813 -1.058,0.555 -2.099,1.075 -3.14,1.553 l -0.708,0.341 c -4.958,2.253 -10.189,3.831 -15.565,4.71 -0.375,0.06 -0.759,0.128 -1.143,0.179 -1.067,0.154 -2.116,0.282 -3.157,0.375 -1.374,0.119 -2.756,0.188 -4.164,0.213 -0.597,0 -1.186,0 -1.783,0 -2.022,-0.026 -4.036,-0.145 -6.042,-0.375 l -1.024,-0.119 c -2.347,-0.307 -4.676,-0.742 -6.972,-1.314 -31.957,-8.183 -51.234,-40.721 -43.059,-72.678 5.402,-21.12 21.888,-37.615 42.999,-43.042 z"
       id="path86" /><path
       style="fill:#231f20"
       d="m 486.4,179.2 h -26.837 c -3.575,0.034 -6.784,-2.219 -7.953,-5.598 -2.645,-7.927 -5.845,-15.659 -9.583,-23.134 -1.587,-3.226 -0.922,-7.108 1.638,-9.634 l 19.029,-19.055 c 9.984,-9.993 9.984,-26.197 0,-36.19 L 426.41,49.365 c -9.993,-9.984 -26.197,-9.984 -36.19,0 L 371.2,68.378 c -2.517,2.56 -6.4,3.226 -9.626,1.647 -7.475,-3.755 -15.206,-6.972 -23.142,-9.634 -3.396,-1.161 -5.666,-4.369 -5.632,-7.953 V 25.6 C 332.8,11.46 321.34,0 307.2,0 H 256 c -14.14,0 -25.6,11.46 -25.6,25.6 v 26.837 c 0.034,3.575 -2.219,6.784 -5.598,7.953 -7.927,2.662 -15.659,5.879 -23.134,9.626 -3.226,1.587 -7.117,0.93 -9.634,-1.638 L 172.979,49.349 c -10.01,-9.958 -26.18,-9.958 -36.19,0 l -36.215,36.215 c -9.993,9.993 -9.993,26.206 0,36.198 l 27.981,28.032 c 3.388,3.277 8.789,3.191 12.066,-0.188 3.2,-3.302 3.209,-8.542 0.017,-11.861 L 112.64,109.722 c -3.328,-3.337 -3.328,-8.73 0,-12.066 l 36.215,-36.215 c 3.328,-3.328 8.738,-3.328 12.066,0 l 19.063,19.029 c 7.714,7.757 19.533,9.702 29.321,4.813 6.758,-3.388 13.747,-6.289 20.915,-8.695 10.342,-3.499 17.289,-13.227 17.246,-24.149 V 25.6 c 0,-4.71 3.823,-8.533 8.533,-8.533 h 51.2 c 4.71,0 8.533,3.823 8.533,8.533 v 26.837 c -0.043,10.923 6.903,20.642 17.246,24.141 7.168,2.406 14.165,5.316 20.924,8.704 9.788,4.864 21.589,2.918 29.312,-4.821 L 402.277,61.44 c 3.328,-3.328 8.738,-3.328 12.066,0 l 36.215,36.224 c 3.328,3.328 3.328,8.73 0,12.058 l -19.029,19.063 c -7.748,7.714 -9.694,19.533 -4.813,29.321 3.388,6.758 6.289,13.747 8.695,20.915 3.499,10.342 13.227,17.297 24.149,17.246 h 26.84 c 4.71,0 8.533,3.823 8.533,8.533 V 256 c 0,4.71 -3.823,8.533 -8.533,8.533 h -26.837 c -10.923,-0.043 -20.642,6.903 -24.141,17.246 -2.406,7.168 -5.316,14.165 -8.704,20.924 -4.873,9.788 -2.927,21.598 4.821,29.312 l 19.029,19.063 c 3.328,3.328 3.328,8.738 0,12.066 l -36.233,36.215 c -3.328,3.328 -8.73,3.328 -12.058,0 l -28.041,-27.981 c -3.277,-3.388 -8.678,-3.473 -12.066,-0.196 -3.388,3.277 -3.473,8.678 -0.196,12.066 0.068,0.068 0.137,0.137 0.213,0.205 l 28.032,27.981 c 9.993,9.984 26.197,9.984 36.19,0 l 36.215,-36.207 c 9.993,-10.001 9.993,-26.197 0,-36.198 L 443.622,320 c -2.56,-2.517 -3.226,-6.4 -1.647,-9.626 3.755,-7.475 6.972,-15.206 9.634,-23.142 1.161,-3.396 4.369,-5.666 7.953,-5.632 H 486.4 c 14.14,0 25.6,-11.46 25.6,-25.6 v -51.2 c 0,-14.14 -11.46,-25.6 -25.6,-25.6 z"
       id="path88" /><path
       style="fill:#231f20"
       d="m 360.038,151.962 c -43.349,-43.255 -113.527,-43.255 -156.877,0 -3.277,3.388 -3.183,8.789 0.213,12.066 3.311,3.191 8.55,3.191 11.853,0 36.412,-36.898 95.846,-37.299 132.745,-0.887 36.899,36.412 37.299,95.846 0.887,132.745 -0.299,0.299 -0.589,0.597 -0.887,0.887 -3.388,3.277 -3.482,8.678 -0.205,12.066 3.277,3.388 8.678,3.482 12.066,0.205 0.068,-0.068 0.137,-0.137 0.205,-0.205 43.256,-43.35 43.256,-113.528 0,-156.877 z"
       id="path90" /></g></g></svg>
