<svg id="Capa_1" enable-background="new 0 0 512 512" height="512" viewBox="0 0 512 512" width="512" xmlns="http://www.w3.org/2000/svg"><path d="m451.91 123.663c0-64.155-52.008-116.163-116.164-116.163h-6.512c28.064 0 50.814 22.75 50.814 50.814v7.628c0 7.412 6.008 13.42 13.42 13.42h7.627c28.064 0 50.814 22.75 50.814 50.814z" fill="#e2dfe2"/><path d="m197.653 62.5h-117.276c-11.204 0-20.287 9.083-20.287 20.287v75.136c0-11.203 9.082-20.285 20.285-20.285h117.278c11.204 0 20.287-9.083 20.287-20.287v-34.564c0-11.204-9.083-20.287-20.287-20.287z" fill="#a2f4c1"/><path d="m401.096 79.362h-7.627c-7.412 0-13.42-6.009-13.42-13.42v-7.628c0-28.064-22.75-50.813-50.813-50.813h-221.308c-7.412 0-13.42 6.008-13.42 13.42v41.579h103.145c11.204 0 20.287 9.083 20.287 20.287v34.564c0 11.204-9.083 20.287-20.287 20.287h-103.145v353.442c0 7.412 6.009 13.42 13.42 13.42h330.562c7.412 0 13.42-6.008 13.42-13.42v-360.904c0-28.064-22.75-50.814-50.814-50.814z" fill="#f9f6f9"/><path d="m401.505 79.364c6.527 8.547 10.405 19.227 10.405 30.812v274.436c0 55.167-44.721 99.888-99.888 99.888h-217.514v6.58c0 7.412 6.009 13.42 13.42 13.42h330.562c7.412 0 13.42-6.009 13.42-13.42v-360.904c0-27.927-22.529-50.593-50.405-50.812z" fill="#efecef"/><path d="m94.508 178.208h-14.133c-11.203 0-20.285-9.082-20.285-20.285s9.082-20.285 20.285-20.285h14.133z" fill="#86f1a7"/><path d="m411.91 236.449v-39.35c0-5.523-4.477-10-10-10h-218.051v49.35z" fill="#80e29d"/><path d="m183.859 187.099h-39.35c-5.523 0-10 4.477-10 10v39.35h49.35z" fill="#78d090"/><path d="m134.508 236.449v218.051c0 5.523 4.477 10 10 10h39.35v-228.051z" fill="#80e29d"/><path d="m183.859 236.449v228.051h218.051c5.523 0 10-4.477 10-10v-218.051z" fill="#a2f4c1"/><path d="m401.91 464.5c5.523 0 10-4.477 10-10v-69.85c-.012 32.647-15.686 61.632-39.916 79.85z" fill="#86f1a7"/><path d="m335.746 0h-227.818c-11.535 0-20.92 9.385-20.92 20.92v34.08h-6.631c-15.321 0-27.787 12.465-27.787 27.787v75.136c0 15.32 12.464 27.785 27.785 27.785h6.633v305.372c0 11.536 9.385 20.92 20.92 20.92h330.562c11.535 0 20.92-9.385 20.92-20.92v-86.202c0-4.142-3.358-7.5-7.5-7.5s-7.5 3.358-7.5 7.5v86.202c0 3.265-2.656 5.92-5.92 5.92h-330.561c-3.265 0-5.92-2.656-5.92-5.92v-345.941h32.5c4.142 0 7.5-3.358 7.5-7.5s-3.358-7.5-7.5-7.5h-54.134c-4.607 0-8.956 1.127-12.785 3.12v-50.472c0-7.051 5.737-12.787 12.787-12.787h117.275c7.051 0 12.788 5.736 12.788 12.787v34.564c0 7.051-5.736 12.787-12.788 12.787h-28.145c-4.142 0-7.5 3.358-7.5 7.5s3.358 7.5 7.5 7.5h28.145c15.322 0 27.788-12.465 27.788-27.787v-34.564c0-15.322-12.465-27.787-27.787-27.787h-95.645v-34.08c0-3.265 2.656-5.92 5.92-5.92h221.306c23.883 0 43.314 19.43 43.314 43.313v7.628c0 11.536 9.385 20.92 20.92 20.92h7.627c23.883 0 43.314 19.431 43.314 43.314v239.702c0 4.142 3.358 7.5 7.5 7.5s7.5-3.358 7.5-7.5v-246.213c.001-68.189-55.474-123.664-123.663-123.664zm-255.371 145.139h6.633v25.569h-6.633c-7.049 0-12.785-5.735-12.785-12.785s5.736-12.784 12.785-12.784zm320.721-73.277h-7.627c-3.264 0-5.92-2.656-5.92-5.92v-7.628c0-13.542-4.638-26.018-12.411-35.927 28.285 11.039 50.847 33.602 61.886 61.887-9.91-7.774-22.387-12.412-35.928-12.412z"/><path d="m144.508 179.599c-9.649 0-17.5 7.851-17.5 17.5v257.401c0 9.649 7.851 17.5 17.5 17.5h257.402c9.649 0 17.5-7.851 17.5-17.5v-257.401c0-9.649-7.851-17.5-17.5-17.5zm162.918 64.35h20.967v30.61h-61.017v-30.61h5.05c4.142 0 7.5-3.358 7.5-7.5s-3.358-7.5-7.5-7.5h-5.05v-34.35h61.017v34.35h-20.967c-4.142 0-7.5 3.358-7.5 7.5s3.358 7.5 7.5 7.5zm-40.051 167.441v-30.61h61.017v30.61zm61.018 15v30.61h-61.017v-30.61zm-152.035-91.221v30.61h-34.35v-30.61zm-34.35-15v-30.61h34.35v30.61zm49.35 15h61.017v30.61h-61.017zm76.017 0h61.017v30.61h-61.017zm76.018 0h61.017v30.61h-61.017zm0-15v-30.61h61.017v30.61zm-15 0h-61.017v-30.61h61.017zm-76.018 0h-61.017v-30.61h61.017zm-61.017-45.61v-30.61h61.017v30.61zm0-45.61v-34.35h61.017v34.35zm-15 45.61h-34.35v-30.61h34.35zm-34.35 106.221h34.35v30.61h-34.35zm49.35 0h61.017v30.61h-61.017zm152.035 0h61.017v30.61h-61.017zm61.017-106.221h-61.017v-30.61h61.017zm-262.402-77.46c0-1.378 1.122-2.5 2.5-2.5h31.85v34.35h-34.35zm0 257.401v-28.11h34.35v30.61h-31.85c-1.378 0-2.5-1.122-2.5-2.5zm49.35-28.11h61.017v30.61h-61.017zm210.552 30.61h-58.517v-30.61h61.017v28.11c0 1.378-1.122 2.5-2.5 2.5zm2.5-259.901v31.85h-61.017v-34.35h58.517c1.378 0 2.5 1.121 2.5 2.5z"/></svg>